M48
METRIC,LZ,000.000
;FILE_FORMAT=3:3
;TYPE=PLATED
;Layer: PTH_Through_Via
;EasyEDA v6.5.23, 2023-05-05 12:33:24
;99fe30585978489ba2b06a073ac4f22d,10
;Gerber Generator version 0.2
;Holesize 1 = 0.305 mm
T01C0.305
;Holesize 2 = 0.306 mm
T02C0.306
%
G05
G90
T01
X044990Y-027686
X052324Y-037592
X040590Y-027686
X049784Y-037592
X041275Y-054356
X042291Y-054356
X043307Y-052324
X041275Y-053340
X041275Y-052324
X042291Y-052324
X030734Y-037846
X033274Y-037846
X043307Y-053340
X043307Y-054356
T02
X026416Y-034163
X026416Y-039243
X029548Y-012479
X029548Y-017559
X029548Y-022639
X029548Y-027719
X034627Y-012479
X034627Y-017559
X034627Y-022639
X034627Y-032799
X039707Y-012479
X039707Y-017559
X039707Y-022639
X039707Y-032799
X039707Y-037879
X044788Y-012479
X044788Y-017559
X044788Y-022639
X044788Y-037879
X049867Y-012479
X049867Y-017559
X049867Y-022639
X049867Y-027719
X054947Y-012479
X054947Y-017559
X054947Y-022639
X054947Y-027719
X054947Y-032799
X054947Y-037879
X044069Y-028067
X044069Y-024892
M30
