G04 Layer: TopSilkscreenLayer*
G04 EasyEDA v6.5.23, 2023-05-05 12:33:24*
G04 99fe30585978489ba2b06a073ac4f22d,10*
G04 Gerber Generator version 0.2*
G04 Scale: 100 percent, Rotated: No, Reflected: No *
G04 Dimensions in millimeters *
G04 leading zeros omitted , absolute positions ,4 integer and 5 decimal *
%FSLAX45Y45*%
%MOMM*%

%ADD10C,0.2000*%
%ADD11C,0.3000*%
%ADD12C,0.1524*%
%ADD13C,0.2540*%

%LPD*%
G36*
X2589377Y-4036314D02*
G01*
X2589377Y-4265472D01*
X2871876Y-4265472D01*
X2872130Y-4260342D01*
X2873248Y-4254703D01*
X2875280Y-4248404D01*
X2878226Y-4241342D01*
X2882036Y-4233265D01*
X2888538Y-4220870D01*
X2893263Y-4214012D01*
X2899308Y-4206443D01*
X2906522Y-4198366D01*
X2914904Y-4189831D01*
X2924200Y-4180992D01*
X2934309Y-4172000D01*
X2945079Y-4162958D01*
X2956407Y-4153966D01*
X2968142Y-4145127D01*
X2980131Y-4136593D01*
X2992272Y-4128515D01*
X3030220Y-4104944D01*
X3047288Y-4094581D01*
X3061563Y-4086351D01*
X3073501Y-4080052D01*
X3078734Y-4077563D01*
X3088030Y-4073855D01*
X3092196Y-4072585D01*
X3099866Y-4071162D01*
X3103473Y-4070959D01*
X3110484Y-4071416D01*
X3117697Y-4072991D01*
X3125419Y-4075531D01*
X3134258Y-4078833D01*
X3139440Y-4081322D01*
X3144266Y-4084675D01*
X3148634Y-4088688D01*
X3152495Y-4093311D01*
X3155645Y-4098290D01*
X3158032Y-4103522D01*
X3159506Y-4108907D01*
X3160522Y-4119879D01*
X3161842Y-4126179D01*
X3163925Y-4132884D01*
X3166668Y-4139793D01*
X3170021Y-4146702D01*
X3173831Y-4153458D01*
X3178048Y-4159758D01*
X3188970Y-4173626D01*
X3195472Y-4183481D01*
X3201822Y-4194505D01*
X3207613Y-4206036D01*
X3212592Y-4217466D01*
X3214674Y-4222953D01*
X3216402Y-4228236D01*
X3217976Y-4233926D01*
X3219145Y-4239107D01*
X3219856Y-4243882D01*
X3220008Y-4248302D01*
X3219602Y-4252417D01*
X3218535Y-4256227D01*
X3216859Y-4259834D01*
X3214522Y-4263339D01*
X3212708Y-4265269D01*
X3264306Y-4265269D01*
X3264408Y-4259884D01*
X3265424Y-4249064D01*
X3266236Y-4243679D01*
X3268726Y-4233011D01*
X3272129Y-4222546D01*
X3276447Y-4212183D01*
X3281679Y-4202074D01*
X3287826Y-4192219D01*
X3294786Y-4182668D01*
X3298596Y-4177995D01*
X3306876Y-4168952D01*
X3315919Y-4160265D01*
X3325774Y-4151985D01*
X3336391Y-4144162D01*
X3347770Y-4136796D01*
X3352139Y-4134408D01*
X3356914Y-4132326D01*
X3362096Y-4130446D01*
X3367633Y-4128820D01*
X3373475Y-4127449D01*
X3379571Y-4126331D01*
X3392474Y-4124807D01*
X3399180Y-4124350D01*
X3406038Y-4124147D01*
X3419906Y-4124401D01*
X3433775Y-4125518D01*
X3440633Y-4126331D01*
X3453942Y-4128668D01*
X3466490Y-4131716D01*
X3472383Y-4133494D01*
X3483203Y-4137609D01*
X3488029Y-4139946D01*
X3492449Y-4142435D01*
X3496411Y-4145076D01*
X3499916Y-4147870D01*
X3502812Y-4150817D01*
X3505200Y-4153966D01*
X3509822Y-4161586D01*
X3513531Y-4168800D01*
X3516223Y-4175556D01*
X3517900Y-4181906D01*
X3518357Y-4184904D01*
X3518408Y-4190746D01*
X3518052Y-4193540D01*
X3517341Y-4196232D01*
X3516376Y-4198874D01*
X3515106Y-4201414D01*
X3513531Y-4203954D01*
X3509416Y-4208780D01*
X3504031Y-4213402D01*
X3497275Y-4217873D01*
X3489198Y-4222191D01*
X3479698Y-4226356D01*
X3468725Y-4230471D01*
X3456279Y-4234586D01*
X3442258Y-4238650D01*
X3426663Y-4242714D01*
X3409391Y-4246880D01*
X3390493Y-4251096D01*
X3369868Y-4255414D01*
X3363620Y-4256989D01*
X3357575Y-4259021D01*
X3351784Y-4261510D01*
X3346297Y-4264406D01*
X3341115Y-4267708D01*
X3336391Y-4271365D01*
X3332022Y-4275277D01*
X3328897Y-4278731D01*
X3519170Y-4278731D01*
X3519322Y-4272686D01*
X3520084Y-4266641D01*
X3521456Y-4260646D01*
X3523538Y-4254855D01*
X3526231Y-4249318D01*
X3529584Y-4244136D01*
X3536797Y-4235348D01*
X3539896Y-4230065D01*
X3542944Y-4223664D01*
X3545840Y-4216400D01*
X3548430Y-4208475D01*
X3550767Y-4200093D01*
X3552647Y-4191558D01*
X3554984Y-4177233D01*
X3556152Y-4171950D01*
X3557574Y-4167073D01*
X3559301Y-4162653D01*
X3561384Y-4158589D01*
X3563823Y-4154881D01*
X3566718Y-4151579D01*
X3570020Y-4148531D01*
X3573779Y-4145787D01*
X3578098Y-4143298D01*
X3582924Y-4141063D01*
X3588359Y-4138980D01*
X3594404Y-4137101D01*
X3608476Y-4133748D01*
X3626154Y-4130548D01*
X3644392Y-4127652D01*
X3661511Y-4125214D01*
X3677462Y-4123283D01*
X3692194Y-4121861D01*
X3705758Y-4120946D01*
X3718102Y-4120540D01*
X3729278Y-4120591D01*
X3739184Y-4121200D01*
X3747820Y-4122267D01*
X3755186Y-4123842D01*
X3758437Y-4124807D01*
X3763924Y-4127144D01*
X3766159Y-4128515D01*
X3768090Y-4129989D01*
X3769664Y-4131564D01*
X3770934Y-4133291D01*
X3771696Y-4135526D01*
X3771290Y-4137812D01*
X3769817Y-4140149D01*
X3767328Y-4142536D01*
X3763924Y-4144924D01*
X3759606Y-4147261D01*
X3754526Y-4149547D01*
X3748633Y-4151782D01*
X3742080Y-4153865D01*
X3734917Y-4155795D01*
X3727196Y-4157522D01*
X3691534Y-4163923D01*
X3675837Y-4167073D01*
X3662222Y-4170121D01*
X3650691Y-4173067D01*
X3641344Y-4175912D01*
X3634079Y-4178706D01*
X3628948Y-4181297D01*
X3627170Y-4182567D01*
X3626002Y-4183786D01*
X3625342Y-4185005D01*
X3625240Y-4186174D01*
X3625646Y-4187291D01*
X3626662Y-4188409D01*
X3628186Y-4189425D01*
X3630269Y-4190441D01*
X3636162Y-4192371D01*
X3644290Y-4194098D01*
X3666896Y-4197908D01*
X3679088Y-4200296D01*
X3690772Y-4202887D01*
X3701389Y-4205528D01*
X3710330Y-4208018D01*
X3718255Y-4210862D01*
X3721658Y-4212691D01*
X3724198Y-4214571D01*
X3725926Y-4216552D01*
X3726840Y-4218635D01*
X3726992Y-4220718D01*
X3726434Y-4222851D01*
X3725214Y-4224985D01*
X3723284Y-4227118D01*
X3720744Y-4229252D01*
X3717594Y-4231335D01*
X3713886Y-4233367D01*
X3709619Y-4235348D01*
X3699662Y-4239056D01*
X3687927Y-4242257D01*
X3681526Y-4243679D01*
X3667658Y-4245965D01*
X3652723Y-4247438D01*
X3644950Y-4247845D01*
X3629812Y-4248200D01*
X3622903Y-4248708D01*
X3610254Y-4250537D01*
X3604615Y-4251858D01*
X3599535Y-4253331D01*
X3595065Y-4255058D01*
X3591204Y-4256938D01*
X3588156Y-4258970D01*
X3585870Y-4261154D01*
X3584448Y-4263440D01*
X3583940Y-4265828D01*
X3584600Y-4268368D01*
X3586378Y-4270654D01*
X3589375Y-4272737D01*
X3593439Y-4274515D01*
X3598519Y-4276039D01*
X3604666Y-4277309D01*
X3611778Y-4278274D01*
X3619804Y-4278985D01*
X3628745Y-4279341D01*
X3638448Y-4279442D01*
X3649014Y-4279188D01*
X3668268Y-4278223D01*
X3683000Y-4277817D01*
X3696055Y-4277918D01*
X3707485Y-4278579D01*
X3717290Y-4279646D01*
X3725418Y-4281170D01*
X3731920Y-4282998D01*
X3736797Y-4285183D01*
X3738575Y-4286351D01*
X3739997Y-4287621D01*
X3740962Y-4288891D01*
X3741572Y-4290263D01*
X3741724Y-4291634D01*
X3741470Y-4293057D01*
X3740319Y-4295241D01*
X3783990Y-4295241D01*
X3784142Y-4291228D01*
X3784701Y-4286910D01*
X3785565Y-4282338D01*
X3788206Y-4272534D01*
X3792016Y-4262069D01*
X3796792Y-4251045D01*
X3802481Y-4239615D01*
X3808933Y-4228033D01*
X3816045Y-4216450D01*
X3823665Y-4204970D01*
X3831691Y-4193844D01*
X3839972Y-4183227D01*
X3848455Y-4173321D01*
X3856939Y-4164279D01*
X3865372Y-4156252D01*
X3869486Y-4152646D01*
X3877564Y-4146499D01*
X3881424Y-4144010D01*
X3885234Y-4141876D01*
X3888892Y-4140149D01*
X3892397Y-4138828D01*
X3895750Y-4138015D01*
X3898900Y-4137660D01*
X3901897Y-4137761D01*
X3906723Y-4138574D01*
X3911041Y-4139590D01*
X3914901Y-4140860D01*
X3918254Y-4142486D01*
X3921150Y-4144416D01*
X3923639Y-4146804D01*
X3925722Y-4149598D01*
X3927398Y-4152900D01*
X3928719Y-4156811D01*
X3929634Y-4161282D01*
X3930294Y-4166412D01*
X3930599Y-4172204D01*
X3930650Y-4178808D01*
X3929887Y-4194352D01*
X3928618Y-4210862D01*
X3928160Y-4224274D01*
X3928567Y-4235653D01*
X3929024Y-4240631D01*
X3930599Y-4249115D01*
X3931615Y-4252620D01*
X3932834Y-4255617D01*
X3934206Y-4258157D01*
X3935729Y-4260189D01*
X3937355Y-4261764D01*
X3939184Y-4262831D01*
X3941114Y-4263390D01*
X3943146Y-4263491D01*
X3945331Y-4263085D01*
X3947617Y-4262221D01*
X3950004Y-4260850D01*
X3952494Y-4259021D01*
X3955084Y-4256684D01*
X3957726Y-4253890D01*
X3963263Y-4246829D01*
X3969004Y-4237837D01*
X3974998Y-4226915D01*
X3981043Y-4214114D01*
X3993337Y-4185005D01*
X3999788Y-4172254D01*
X4006392Y-4161231D01*
X4013200Y-4151985D01*
X4016603Y-4148023D01*
X4020058Y-4144518D01*
X4023461Y-4141520D01*
X4026865Y-4138929D01*
X4030218Y-4136847D01*
X4033570Y-4135272D01*
X4036872Y-4134154D01*
X4040124Y-4133545D01*
X4043324Y-4133443D01*
X4046474Y-4133850D01*
X4049471Y-4134815D01*
X4052417Y-4136237D01*
X4055262Y-4138218D01*
X4058005Y-4140758D01*
X4060596Y-4143806D01*
X4063085Y-4147464D01*
X4064304Y-4150004D01*
X4065168Y-4153001D01*
X4065676Y-4156557D01*
X4065828Y-4160469D01*
X4065676Y-4164837D01*
X4064406Y-4174642D01*
X4062069Y-4185615D01*
X4058716Y-4197553D01*
X4055591Y-4207052D01*
X4106011Y-4207052D01*
X4106316Y-4197299D01*
X4107535Y-4187596D01*
X4109669Y-4178046D01*
X4112615Y-4168648D01*
X4116476Y-4159453D01*
X4121150Y-4150614D01*
X4126687Y-4142079D01*
X4132986Y-4133951D01*
X4140149Y-4126280D01*
X4148074Y-4119118D01*
X4156710Y-4112564D01*
X4161332Y-4109465D01*
X4171137Y-4103878D01*
X4181703Y-4098950D01*
X4189171Y-4096156D01*
X4194556Y-4094937D01*
X4201871Y-4093768D01*
X4221378Y-4091533D01*
X4246270Y-4089603D01*
X4275175Y-4088028D01*
X4306722Y-4086961D01*
X4343704Y-4086402D01*
X4366260Y-4086504D01*
X4385716Y-4087012D01*
X4402226Y-4087876D01*
X4415891Y-4089196D01*
X4426762Y-4090924D01*
X4431233Y-4091990D01*
X4434992Y-4093159D01*
X4438142Y-4094429D01*
X4440682Y-4095800D01*
X4442612Y-4097324D01*
X4443882Y-4098950D01*
X4444593Y-4100728D01*
X4444746Y-4102608D01*
X4444339Y-4104640D01*
X4443171Y-4106926D01*
X4441342Y-4109059D01*
X4438802Y-4110990D01*
X4435551Y-4112768D01*
X4431588Y-4114342D01*
X4426966Y-4115765D01*
X4421682Y-4116984D01*
X4409033Y-4118864D01*
X4401718Y-4119575D01*
X4385106Y-4120337D01*
X4375861Y-4120489D01*
X4355388Y-4120134D01*
X4335119Y-4119372D01*
X4317695Y-4119219D01*
X4301134Y-4119676D01*
X4285488Y-4120845D01*
X4270756Y-4122623D01*
X4256938Y-4125061D01*
X4244136Y-4128160D01*
X4232249Y-4131818D01*
X4221378Y-4136136D01*
X4216349Y-4138472D01*
X4211523Y-4141012D01*
X4202734Y-4146499D01*
X4198670Y-4149496D01*
X4194911Y-4152595D01*
X4191406Y-4155846D01*
X4185208Y-4162806D01*
X4180128Y-4170324D01*
X4177995Y-4174286D01*
X4176115Y-4178401D01*
X4174540Y-4182668D01*
X4173270Y-4187037D01*
X4172254Y-4191558D01*
X4171492Y-4196181D01*
X4171086Y-4200956D01*
X4170934Y-4205884D01*
X4171086Y-4211675D01*
X4171543Y-4217212D01*
X4172305Y-4222546D01*
X4173423Y-4227677D01*
X4174845Y-4232605D01*
X4176572Y-4237278D01*
X4178604Y-4241749D01*
X4180992Y-4246016D01*
X4183684Y-4250080D01*
X4186682Y-4253941D01*
X4190034Y-4257548D01*
X4193692Y-4261002D01*
X4197705Y-4264202D01*
X4202023Y-4267200D01*
X4206697Y-4269994D01*
X4211675Y-4272584D01*
X4217009Y-4274972D01*
X4222648Y-4277156D01*
X4228642Y-4279138D01*
X4241698Y-4282541D01*
X4248708Y-4283913D01*
X4263796Y-4286097D01*
X4280306Y-4287469D01*
X4298188Y-4288078D01*
X4318558Y-4288028D01*
X4335322Y-4287266D01*
X4342485Y-4286554D01*
X4348835Y-4285589D01*
X4354474Y-4284421D01*
X4359452Y-4282998D01*
X4363770Y-4281271D01*
X4367479Y-4279290D01*
X4370628Y-4277004D01*
X4373270Y-4274362D01*
X4375454Y-4271416D01*
X4377182Y-4268165D01*
X4378502Y-4264507D01*
X4379518Y-4260494D01*
X4380331Y-4255465D01*
X4380484Y-4250994D01*
X4380077Y-4247083D01*
X4379010Y-4243628D01*
X4377232Y-4240733D01*
X4374743Y-4238244D01*
X4371543Y-4236212D01*
X4367530Y-4234637D01*
X4362754Y-4233418D01*
X4357166Y-4232605D01*
X4350664Y-4232097D01*
X4333900Y-4231538D01*
X4325620Y-4230319D01*
X4318406Y-4228287D01*
X4312412Y-4225493D01*
X4307687Y-4222038D01*
X4304182Y-4217822D01*
X4302099Y-4212996D01*
X4301337Y-4207510D01*
X4301591Y-4204258D01*
X4302302Y-4201261D01*
X4303471Y-4198518D01*
X4305198Y-4196029D01*
X4307484Y-4193794D01*
X4310329Y-4191812D01*
X4313732Y-4190034D01*
X4317796Y-4188460D01*
X4322521Y-4187139D01*
X4327906Y-4186021D01*
X4334002Y-4185056D01*
X4340758Y-4184294D01*
X4356608Y-4183379D01*
X4375658Y-4183075D01*
X4449978Y-4183075D01*
X4440030Y-4320133D01*
X4497019Y-4320133D01*
X4497273Y-4318660D01*
X4499406Y-4313275D01*
X4503420Y-4304842D01*
X4516221Y-4280509D01*
X4534103Y-4248861D01*
X4554931Y-4213656D01*
X4564634Y-4198061D01*
X4573574Y-4184497D01*
X4581855Y-4172915D01*
X4589576Y-4163110D01*
X4596993Y-4154982D01*
X4604156Y-4148429D01*
X4607661Y-4145635D01*
X4614722Y-4141165D01*
X4618329Y-4139387D01*
X4621936Y-4137914D01*
X4625594Y-4136694D01*
X4629404Y-4135729D01*
X4637227Y-4134510D01*
X4641392Y-4134205D01*
X4649978Y-4134256D01*
X4654194Y-4134510D01*
X4662170Y-4135831D01*
X4665980Y-4136847D01*
X4669739Y-4138117D01*
X4673447Y-4139742D01*
X4677105Y-4141673D01*
X4680712Y-4143908D01*
X4684369Y-4146550D01*
X4689023Y-4150461D01*
X4774184Y-4150461D01*
X4774488Y-4149242D01*
X4775352Y-4148124D01*
X4776774Y-4147007D01*
X4778806Y-4145889D01*
X4784394Y-4143857D01*
X4792014Y-4141978D01*
X4801565Y-4140250D01*
X4812893Y-4138676D01*
X4825949Y-4137355D01*
X4840630Y-4136237D01*
X4856734Y-4135323D01*
X4874209Y-4134662D01*
X4892903Y-4134256D01*
X5198110Y-4134154D01*
X5216550Y-4134358D01*
X5234076Y-4134916D01*
X5250434Y-4135882D01*
X5265369Y-4137101D01*
X5278678Y-4138676D01*
X5290108Y-4140454D01*
X5299456Y-4142486D01*
X5306364Y-4144670D01*
X5308904Y-4145838D01*
X5310733Y-4147058D01*
X5311851Y-4148277D01*
X5312206Y-4149547D01*
X5311546Y-4151680D01*
X5309514Y-4153814D01*
X5306212Y-4155948D01*
X5301792Y-4157979D01*
X5296306Y-4160012D01*
X5289854Y-4161891D01*
X5282539Y-4163669D01*
X5274411Y-4165295D01*
X5265623Y-4166768D01*
X5256225Y-4168038D01*
X5246370Y-4169105D01*
X5228488Y-4170476D01*
X5214315Y-4171950D01*
X5201564Y-4173829D01*
X5190236Y-4176064D01*
X5180330Y-4178554D01*
X5171846Y-4181348D01*
X5164785Y-4184294D01*
X5159248Y-4187342D01*
X5157012Y-4188917D01*
X5153710Y-4192117D01*
X5152593Y-4193743D01*
X5151932Y-4195318D01*
X5151577Y-4196892D01*
X5151628Y-4198467D01*
X5152085Y-4199991D01*
X5152948Y-4201515D01*
X5154168Y-4202988D01*
X5155793Y-4204411D01*
X5160213Y-4207052D01*
X5163058Y-4208322D01*
X5169916Y-4210558D01*
X5178399Y-4212437D01*
X5188559Y-4213961D01*
X5200345Y-4215028D01*
X5213807Y-4215587D01*
X5231180Y-4215739D01*
X5248706Y-4216349D01*
X5256326Y-4216908D01*
X5269230Y-4218584D01*
X5274665Y-4219752D01*
X5279390Y-4221073D01*
X5283454Y-4222597D01*
X5286908Y-4224375D01*
X5289753Y-4226407D01*
X5292039Y-4228642D01*
X5293766Y-4231132D01*
X5294985Y-4233824D01*
X5295696Y-4236872D01*
X5295900Y-4240123D01*
X5295696Y-4243374D01*
X5294985Y-4246372D01*
X5293817Y-4249115D01*
X5292090Y-4251604D01*
X5289854Y-4253839D01*
X5287060Y-4255820D01*
X5283657Y-4257598D01*
X5279593Y-4259122D01*
X5274970Y-4260494D01*
X5269636Y-4261612D01*
X5256936Y-4263288D01*
X5241290Y-4264253D01*
X5212638Y-4264710D01*
X5203088Y-4265168D01*
X5194046Y-4265879D01*
X5185613Y-4266793D01*
X5177790Y-4267962D01*
X5170728Y-4269384D01*
X5164531Y-4270908D01*
X5159248Y-4272686D01*
X5154980Y-4274566D01*
X5151831Y-4276547D01*
X5149850Y-4278680D01*
X5149189Y-4280865D01*
X5149596Y-4282541D01*
X5150866Y-4284167D01*
X5152847Y-4285691D01*
X5155590Y-4287215D01*
X5159044Y-4288637D01*
X5167833Y-4291228D01*
X5178907Y-4293463D01*
X5191912Y-4295190D01*
X5206542Y-4296460D01*
X5222392Y-4297121D01*
X5239004Y-4297273D01*
X5254853Y-4297934D01*
X5269484Y-4299153D01*
X5282488Y-4300931D01*
X5293563Y-4303115D01*
X5298236Y-4304385D01*
X5302351Y-4305757D01*
X5305806Y-4307179D01*
X5308549Y-4308652D01*
X5310581Y-4310227D01*
X5311800Y-4311802D01*
X5312206Y-4313478D01*
X5311851Y-4314850D01*
X5310784Y-4316222D01*
X5309057Y-4317492D01*
X5306618Y-4318762D01*
X5303570Y-4319981D01*
X5295646Y-4322216D01*
X5285486Y-4324248D01*
X5273243Y-4325975D01*
X5259171Y-4327398D01*
X5243423Y-4328566D01*
X5226253Y-4329328D01*
X5207762Y-4329734D01*
X5083962Y-4329785D01*
X5083962Y-4134154D01*
X4931511Y-4134256D01*
X4949494Y-4134662D01*
X4966563Y-4135323D01*
X4982565Y-4136237D01*
X4997297Y-4137355D01*
X5010658Y-4138625D01*
X5022392Y-4140098D01*
X5032349Y-4141724D01*
X5040426Y-4143501D01*
X5046370Y-4145381D01*
X5048504Y-4146346D01*
X5050078Y-4147362D01*
X5051044Y-4148378D01*
X5051348Y-4149394D01*
X5050282Y-4152595D01*
X5047183Y-4155744D01*
X5042255Y-4158792D01*
X5035804Y-4161688D01*
X5027930Y-4164329D01*
X5018938Y-4166615D01*
X5009032Y-4168444D01*
X4978603Y-4172153D01*
X4973269Y-4173118D01*
X4968544Y-4174337D01*
X4964328Y-4175760D01*
X4960620Y-4177487D01*
X4957368Y-4179570D01*
X4954574Y-4182110D01*
X4952136Y-4185056D01*
X4950002Y-4188561D01*
X4948224Y-4192625D01*
X4946700Y-4197299D01*
X4945430Y-4202684D01*
X4944313Y-4208830D01*
X4942586Y-4223461D01*
X4939588Y-4263796D01*
X4937760Y-4283303D01*
X4936642Y-4291533D01*
X4935372Y-4298746D01*
X4933899Y-4305046D01*
X4932273Y-4310481D01*
X4930394Y-4315104D01*
X4928209Y-4319016D01*
X4925771Y-4322216D01*
X4923028Y-4324756D01*
X4919980Y-4326686D01*
X4916525Y-4328160D01*
X4912664Y-4329074D01*
X4908397Y-4329633D01*
X4903724Y-4329785D01*
X4898898Y-4329633D01*
X4894529Y-4329176D01*
X4890719Y-4328261D01*
X4887315Y-4326890D01*
X4884318Y-4324959D01*
X4881727Y-4322419D01*
X4879543Y-4319219D01*
X4877663Y-4315256D01*
X4876139Y-4310430D01*
X4874869Y-4304792D01*
X4873904Y-4298137D01*
X4873142Y-4290466D01*
X4872583Y-4281728D01*
X4872075Y-4260697D01*
X4871770Y-4217416D01*
X4871110Y-4201922D01*
X4870500Y-4195521D01*
X4869637Y-4189933D01*
X4868570Y-4185158D01*
X4867198Y-4181043D01*
X4865471Y-4177639D01*
X4863439Y-4174794D01*
X4860950Y-4172508D01*
X4858105Y-4170679D01*
X4854752Y-4169308D01*
X4850892Y-4168292D01*
X4846523Y-4167581D01*
X4836109Y-4166870D01*
X4823104Y-4166768D01*
X4813249Y-4166412D01*
X4804105Y-4165447D01*
X4795774Y-4163974D01*
X4788560Y-4161942D01*
X4782566Y-4159554D01*
X4778044Y-4156760D01*
X4775200Y-4153712D01*
X4774184Y-4150461D01*
X4689023Y-4150461D01*
X4695545Y-4156760D01*
X4703368Y-4165752D01*
X4711649Y-4176623D01*
X4720640Y-4189526D01*
X4730496Y-4204716D01*
X4741316Y-4222242D01*
X4765598Y-4263186D01*
X4775149Y-4279798D01*
X4782566Y-4293412D01*
X4787950Y-4304284D01*
X4791303Y-4312716D01*
X4792268Y-4316171D01*
X4792776Y-4319066D01*
X4792776Y-4321556D01*
X4792370Y-4323638D01*
X4791456Y-4325315D01*
X4790186Y-4326636D01*
X4788408Y-4327702D01*
X4786274Y-4328464D01*
X4783683Y-4329023D01*
X4777333Y-4329582D01*
X4769408Y-4329684D01*
X4764786Y-4329430D01*
X4760163Y-4328668D01*
X4755642Y-4327448D01*
X4751120Y-4325772D01*
X4746599Y-4323537D01*
X4742129Y-4320844D01*
X4737608Y-4317593D01*
X4733137Y-4313885D01*
X4728616Y-4309618D01*
X4724095Y-4304792D01*
X4719574Y-4299458D01*
X4715002Y-4293565D01*
X4710379Y-4287113D01*
X4701032Y-4272584D01*
X4691126Y-4255668D01*
X4680864Y-4239158D01*
X4671009Y-4224731D01*
X4662068Y-4212945D01*
X4658055Y-4208272D01*
X4654499Y-4204512D01*
X4651349Y-4201668D01*
X4648758Y-4199940D01*
X4646777Y-4199382D01*
X4644847Y-4199788D01*
X4642459Y-4201109D01*
X4639716Y-4203192D01*
X4636617Y-4206036D01*
X4629607Y-4213707D01*
X4621834Y-4223613D01*
X4613656Y-4235297D01*
X4605578Y-4248251D01*
X4576673Y-4297172D01*
X4618380Y-4297172D01*
X4626762Y-4297527D01*
X4634534Y-4298492D01*
X4641646Y-4299966D01*
X4647793Y-4301947D01*
X4652924Y-4304385D01*
X4656785Y-4307179D01*
X4659223Y-4310227D01*
X4660036Y-4313478D01*
X4659630Y-4315155D01*
X4658410Y-4316780D01*
X4656378Y-4318304D01*
X4653635Y-4319828D01*
X4650181Y-4321251D01*
X4641392Y-4323842D01*
X4630318Y-4326077D01*
X4617313Y-4327804D01*
X4602683Y-4329074D01*
X4586833Y-4329684D01*
X4567529Y-4329684D01*
X4546854Y-4329023D01*
X4528769Y-4327753D01*
X4514037Y-4326026D01*
X4508195Y-4325010D01*
X4503420Y-4323892D01*
X4499914Y-4322673D01*
X4497781Y-4321403D01*
X4497019Y-4320133D01*
X4440030Y-4320133D01*
X4439920Y-4321657D01*
X4333138Y-4327093D01*
X4314799Y-4327804D01*
X4297680Y-4328160D01*
X4281728Y-4328210D01*
X4266946Y-4327906D01*
X4253128Y-4327194D01*
X4240276Y-4326128D01*
X4228338Y-4324654D01*
X4217212Y-4322724D01*
X4206798Y-4320387D01*
X4197045Y-4317593D01*
X4187901Y-4314342D01*
X4179265Y-4310583D01*
X4171086Y-4306316D01*
X4163314Y-4301540D01*
X4155795Y-4296206D01*
X4148531Y-4290364D01*
X4141419Y-4283913D01*
X4134053Y-4276394D01*
X4130446Y-4272280D01*
X4127093Y-4268012D01*
X4121150Y-4259224D01*
X4118559Y-4254754D01*
X4114088Y-4245508D01*
X4110634Y-4236110D01*
X4108145Y-4226509D01*
X4106621Y-4216806D01*
X4106011Y-4207052D01*
X4055591Y-4207052D01*
X4052062Y-4216603D01*
X4046728Y-4229709D01*
X4040835Y-4242816D01*
X4034383Y-4255617D01*
X4027627Y-4267860D01*
X4020616Y-4279341D01*
X4013454Y-4289704D01*
X4006342Y-4298696D01*
X4002786Y-4302607D01*
X3999280Y-4306062D01*
X3995826Y-4309059D01*
X3992473Y-4311548D01*
X3981653Y-4318254D01*
X3976878Y-4320844D01*
X3972356Y-4322876D01*
X3968038Y-4324299D01*
X3963822Y-4325213D01*
X3959656Y-4325518D01*
X3955440Y-4325213D01*
X3951071Y-4324299D01*
X3946550Y-4322775D01*
X3941724Y-4320590D01*
X3936492Y-4317796D01*
X3930853Y-4314342D01*
X3917797Y-4305452D01*
X3902100Y-4293870D01*
X3888587Y-4284218D01*
X3878427Y-4277664D01*
X3874363Y-4275632D01*
X3870909Y-4274312D01*
X3867962Y-4273804D01*
X3865422Y-4274108D01*
X3863238Y-4275124D01*
X3861358Y-4276953D01*
X3859580Y-4279544D01*
X3857955Y-4282846D01*
X3854704Y-4291838D01*
X3852926Y-4297426D01*
X3850894Y-4302912D01*
X3848455Y-4307840D01*
X3845661Y-4312259D01*
X3842562Y-4316222D01*
X3839210Y-4319625D01*
X3835603Y-4322521D01*
X3831793Y-4324908D01*
X3827881Y-4326737D01*
X3823817Y-4328058D01*
X3819753Y-4328820D01*
X3815689Y-4329023D01*
X3811625Y-4328718D01*
X3807612Y-4327804D01*
X3803751Y-4326382D01*
X3800094Y-4324350D01*
X3796588Y-4321759D01*
X3793337Y-4318609D01*
X3790442Y-4314850D01*
X3787800Y-4310532D01*
X3785615Y-4305554D01*
X3784701Y-4302455D01*
X3784142Y-4299000D01*
X3783990Y-4295241D01*
X3740319Y-4295241D01*
X3738321Y-4297527D01*
X3736441Y-4299051D01*
X3731463Y-4302048D01*
X3724808Y-4305096D01*
X3716578Y-4308043D01*
X3706672Y-4310888D01*
X3695141Y-4313580D01*
X3681984Y-4316069D01*
X3667251Y-4318304D01*
X3651859Y-4320133D01*
X3637178Y-4321556D01*
X3608578Y-4323334D01*
X3595217Y-4323740D01*
X3582720Y-4323791D01*
X3571443Y-4323486D01*
X3561537Y-4322876D01*
X3553256Y-4321962D01*
X3546906Y-4320641D01*
X3544519Y-4319879D01*
X3539490Y-4317441D01*
X3534968Y-4314291D01*
X3531006Y-4310532D01*
X3527602Y-4306163D01*
X3524707Y-4301286D01*
X3522472Y-4296054D01*
X3520744Y-4290466D01*
X3519678Y-4284675D01*
X3519170Y-4278731D01*
X3328897Y-4278731D01*
X3324758Y-4284014D01*
X3321913Y-4288739D01*
X3319627Y-4293666D01*
X3316224Y-4304538D01*
X3314242Y-4309618D01*
X3312109Y-4314037D01*
X3309721Y-4317746D01*
X3307232Y-4320794D01*
X3304590Y-4323232D01*
X3301847Y-4325010D01*
X3299002Y-4326128D01*
X3296158Y-4326686D01*
X3293262Y-4326636D01*
X3290366Y-4325975D01*
X3287471Y-4324756D01*
X3284626Y-4323029D01*
X3281883Y-4320692D01*
X3279292Y-4317847D01*
X3276752Y-4314494D01*
X3274415Y-4310634D01*
X3272231Y-4306316D01*
X3270250Y-4301490D01*
X3268522Y-4296206D01*
X3267049Y-4290466D01*
X3265881Y-4284319D01*
X3265017Y-4277715D01*
X3264458Y-4270756D01*
X3264306Y-4265269D01*
X3212708Y-4265269D01*
X3211372Y-4266692D01*
X3207512Y-4269943D01*
X3202787Y-4273245D01*
X3197199Y-4276598D01*
X3190697Y-4280052D01*
X3174796Y-4287469D01*
X3159912Y-4293768D01*
X3148482Y-4297934D01*
X3136493Y-4301744D01*
X3123996Y-4305147D01*
X3111093Y-4308246D01*
X3097784Y-4310989D01*
X3084271Y-4313377D01*
X3070504Y-4315358D01*
X3056686Y-4316984D01*
X3042818Y-4318254D01*
X3029000Y-4319168D01*
X3015386Y-4319727D01*
X3001924Y-4319879D01*
X2988818Y-4319676D01*
X2976067Y-4319117D01*
X2963824Y-4318203D01*
X2952089Y-4316882D01*
X2941015Y-4315206D01*
X2930652Y-4313123D01*
X2921101Y-4310684D01*
X2912414Y-4307890D01*
X2904693Y-4304690D01*
X2898038Y-4301134D01*
X2895092Y-4299204D01*
X2892450Y-4297172D01*
X2884728Y-4289450D01*
X2880258Y-4284370D01*
X2876753Y-4279544D01*
X2874213Y-4274921D01*
X2872587Y-4270298D01*
X2871876Y-4265472D01*
X2589377Y-4265472D01*
X2589377Y-4362399D01*
X5589422Y-4362399D01*
X5589422Y-4036314D01*
G37*
G36*
X3080613Y-4162653D02*
G01*
X3075279Y-4162704D01*
X3069793Y-4163212D01*
X3064408Y-4164228D01*
X3058820Y-4165701D01*
X3053029Y-4167530D01*
X3047136Y-4169765D01*
X3035096Y-4175302D01*
X3022955Y-4182008D01*
X3010966Y-4189679D01*
X2999384Y-4198061D01*
X2988513Y-4206900D01*
X2978607Y-4215942D01*
X2974086Y-4220514D01*
X2966161Y-4229506D01*
X2962808Y-4233926D01*
X2959912Y-4238193D01*
X2957474Y-4242308D01*
X2955544Y-4246270D01*
X2954172Y-4250029D01*
X2953410Y-4253534D01*
X2953258Y-4256786D01*
X2953715Y-4259732D01*
X2954883Y-4262374D01*
X2956306Y-4264253D01*
X2958084Y-4265930D01*
X2960268Y-4267454D01*
X2962859Y-4268825D01*
X2965805Y-4270044D01*
X2972765Y-4271975D01*
X2981147Y-4273245D01*
X2990799Y-4273854D01*
X3001670Y-4273854D01*
X3013710Y-4273245D01*
X3026867Y-4271975D01*
X3040989Y-4270095D01*
X3056077Y-4267555D01*
X3072028Y-4264406D01*
X3088792Y-4260646D01*
X3106216Y-4256328D01*
X3115208Y-4253890D01*
X3120136Y-4252264D01*
X3124504Y-4250283D01*
X3128314Y-4247946D01*
X3131616Y-4245254D01*
X3134410Y-4242358D01*
X3136646Y-4239158D01*
X3138474Y-4235704D01*
X3139795Y-4232097D01*
X3140659Y-4228287D01*
X3141116Y-4224375D01*
X3141116Y-4220362D01*
X3140710Y-4216247D01*
X3139948Y-4212082D01*
X3138779Y-4207916D01*
X3137255Y-4203750D01*
X3135376Y-4199636D01*
X3133140Y-4195572D01*
X3130600Y-4191609D01*
X3127756Y-4187748D01*
X3124657Y-4184091D01*
X3117545Y-4177334D01*
X3113633Y-4174337D01*
X3109518Y-4171594D01*
X3105150Y-4169156D01*
X3100578Y-4167073D01*
X3095802Y-4165346D01*
X3090926Y-4164025D01*
X3085846Y-4163110D01*
G37*
G36*
X3419449Y-4167073D02*
G01*
X3413201Y-4167124D01*
X3406901Y-4167479D01*
X3400551Y-4168140D01*
X3394354Y-4169156D01*
X3388410Y-4170426D01*
X3382772Y-4171950D01*
X3377539Y-4173829D01*
X3372865Y-4175963D01*
X3368852Y-4178401D01*
X3365601Y-4181144D01*
X3363163Y-4184142D01*
X3359454Y-4191355D01*
X3357270Y-4198061D01*
X3356762Y-4203598D01*
X3358134Y-4207154D01*
X3360369Y-4208576D01*
X3363569Y-4209491D01*
X3367582Y-4209999D01*
X3372358Y-4210050D01*
X3377793Y-4209745D01*
X3389985Y-4208119D01*
X3403295Y-4205325D01*
X3416706Y-4201668D01*
X3429355Y-4197400D01*
X3440226Y-4192727D01*
X3444697Y-4190339D01*
X3448405Y-4187951D01*
X3451148Y-4185615D01*
X3452926Y-4183329D01*
X3453536Y-4181144D01*
X3452977Y-4178249D01*
X3451351Y-4175709D01*
X3448761Y-4173474D01*
X3445357Y-4171594D01*
X3441242Y-4170019D01*
X3436467Y-4168800D01*
X3431184Y-4167936D01*
X3425444Y-4167327D01*
G37*
G36*
X2869438Y-4390390D02*
G01*
X2866745Y-4390796D01*
X2864866Y-4391964D01*
X2863697Y-4393946D01*
X2863342Y-4396740D01*
X2863342Y-4591050D01*
X2863697Y-4593844D01*
X2864866Y-4595825D01*
X2866745Y-4596993D01*
X2869438Y-4597400D01*
X2872232Y-4596993D01*
X2874213Y-4595825D01*
X2875381Y-4593844D01*
X2875788Y-4591050D01*
X2875788Y-4506468D01*
X2880309Y-4490974D01*
X2890774Y-4480052D01*
X2898089Y-4476394D01*
X2906877Y-4473752D01*
X2917139Y-4472178D01*
X2928874Y-4471670D01*
X2937256Y-4471670D01*
X2956052Y-4473905D01*
X2968244Y-4480560D01*
X2974898Y-4492752D01*
X2977134Y-4511548D01*
X2977134Y-4591050D01*
X2977540Y-4593844D01*
X2978708Y-4595825D01*
X2980690Y-4596993D01*
X2983484Y-4597400D01*
X2986278Y-4596993D01*
X2988259Y-4595825D01*
X2989427Y-4593844D01*
X2989834Y-4591050D01*
X2989834Y-4511548D01*
X2989072Y-4498746D01*
X2986735Y-4487875D01*
X2982823Y-4478832D01*
X2977388Y-4471670D01*
X2970123Y-4466234D01*
X2960979Y-4462322D01*
X2950057Y-4459986D01*
X2937256Y-4459224D01*
X2928874Y-4459224D01*
X2916478Y-4459884D01*
X2905455Y-4461865D01*
X2895904Y-4465116D01*
X2887776Y-4469739D01*
X2881071Y-4475632D01*
X2875788Y-4482846D01*
X2875788Y-4396740D01*
X2875381Y-4393946D01*
X2874213Y-4391964D01*
X2872232Y-4390796D01*
G37*
G36*
X3407918Y-4390390D02*
G01*
X3405225Y-4390796D01*
X3403346Y-4391964D01*
X3402177Y-4393946D01*
X3401822Y-4396740D01*
X3401822Y-4459224D01*
X3337306Y-4459224D01*
X3324504Y-4459986D01*
X3313531Y-4462322D01*
X3304438Y-4466234D01*
X3297174Y-4471670D01*
X3291738Y-4478832D01*
X3287826Y-4487875D01*
X3285490Y-4498746D01*
X3284728Y-4511548D01*
X3284728Y-4544822D01*
X3297428Y-4544822D01*
X3297428Y-4511548D01*
X3299663Y-4492752D01*
X3306318Y-4480560D01*
X3318510Y-4473905D01*
X3337306Y-4471670D01*
X3401822Y-4471670D01*
X3401822Y-4552188D01*
X3398215Y-4566412D01*
X3387344Y-4576572D01*
X3379571Y-4580128D01*
X3370579Y-4582668D01*
X3360267Y-4584192D01*
X3348736Y-4584700D01*
X3337306Y-4584700D01*
X3318510Y-4582464D01*
X3306318Y-4575810D01*
X3299663Y-4563618D01*
X3297428Y-4544822D01*
X3284728Y-4544822D01*
X3285490Y-4557623D01*
X3287826Y-4568596D01*
X3291738Y-4577689D01*
X3297174Y-4584954D01*
X3304438Y-4590389D01*
X3313531Y-4594301D01*
X3324504Y-4596638D01*
X3337306Y-4597400D01*
X3348736Y-4597400D01*
X3367735Y-4595926D01*
X3382518Y-4591558D01*
X3393795Y-4584496D01*
X3401822Y-4574540D01*
X3401822Y-4591050D01*
X3402177Y-4593844D01*
X3403346Y-4595825D01*
X3405225Y-4596993D01*
X3407918Y-4597400D01*
X3410712Y-4596993D01*
X3412693Y-4595825D01*
X3413861Y-4593844D01*
X3414268Y-4591050D01*
X3414268Y-4396740D01*
X3413861Y-4393946D01*
X3412693Y-4391964D01*
X3410712Y-4390796D01*
G37*
G36*
X4386834Y-4390390D02*
G01*
X4374286Y-4391152D01*
X4363567Y-4393438D01*
X4354728Y-4397248D01*
X4347718Y-4402582D01*
X4342282Y-4409694D01*
X4338370Y-4418634D01*
X4336034Y-4429404D01*
X4335272Y-4441952D01*
X4335272Y-4459224D01*
X4322064Y-4459224D01*
X4319270Y-4459579D01*
X4317288Y-4460748D01*
X4316120Y-4462627D01*
X4315714Y-4465320D01*
X4316120Y-4468114D01*
X4317288Y-4470095D01*
X4319270Y-4471263D01*
X4322064Y-4471670D01*
X4335272Y-4471670D01*
X4335272Y-4591050D01*
X4335678Y-4593844D01*
X4336846Y-4595825D01*
X4338828Y-4596993D01*
X4341622Y-4597400D01*
X4344416Y-4596993D01*
X4346397Y-4595825D01*
X4347565Y-4593844D01*
X4347972Y-4591050D01*
X4347972Y-4471670D01*
X4387088Y-4471670D01*
X4389882Y-4471263D01*
X4391863Y-4470095D01*
X4393031Y-4468114D01*
X4393438Y-4465320D01*
X4393031Y-4462678D01*
X4391863Y-4460748D01*
X4389882Y-4459630D01*
X4387088Y-4459224D01*
X4347972Y-4459224D01*
X4347972Y-4441952D01*
X4350105Y-4423613D01*
X4356608Y-4411726D01*
X4368495Y-4405223D01*
X4389729Y-4402683D01*
X4391761Y-4401515D01*
X4393031Y-4399534D01*
X4393438Y-4396740D01*
X4393031Y-4393946D01*
X4391761Y-4391964D01*
X4389729Y-4390796D01*
G37*
G36*
X5004054Y-4390390D02*
G01*
X5001260Y-4390796D01*
X4999278Y-4391964D01*
X4998110Y-4393946D01*
X4997704Y-4396740D01*
X4997704Y-4459224D01*
X4933188Y-4459224D01*
X4920386Y-4459986D01*
X4909515Y-4462322D01*
X4900472Y-4466234D01*
X4893310Y-4471670D01*
X4887772Y-4478832D01*
X4883759Y-4487875D01*
X4881422Y-4498746D01*
X4880610Y-4511548D01*
X4880610Y-4544822D01*
X4893310Y-4544822D01*
X4893310Y-4511548D01*
X4895545Y-4492752D01*
X4902200Y-4480560D01*
X4914392Y-4473905D01*
X4933188Y-4471670D01*
X4997704Y-4471670D01*
X4997704Y-4552188D01*
X4994148Y-4566412D01*
X4983480Y-4576572D01*
X4975707Y-4580128D01*
X4966665Y-4582668D01*
X4956302Y-4584192D01*
X4944618Y-4584700D01*
X4933188Y-4584700D01*
X4914392Y-4582464D01*
X4902200Y-4575810D01*
X4895545Y-4563618D01*
X4893310Y-4544822D01*
X4880610Y-4544822D01*
X4881422Y-4557623D01*
X4883759Y-4568596D01*
X4887772Y-4577689D01*
X4893310Y-4584954D01*
X4900472Y-4590389D01*
X4909515Y-4594301D01*
X4920386Y-4596638D01*
X4933188Y-4597400D01*
X4944618Y-4597400D01*
X4963668Y-4595926D01*
X4978654Y-4591558D01*
X4989779Y-4584496D01*
X4997704Y-4574540D01*
X4997704Y-4591050D01*
X4998110Y-4593844D01*
X4999278Y-4595825D01*
X5001260Y-4596993D01*
X5004054Y-4597400D01*
X5006848Y-4596993D01*
X5008829Y-4595825D01*
X5009997Y-4593844D01*
X5010404Y-4591050D01*
X5010404Y-4396740D01*
X5009997Y-4393946D01*
X5008829Y-4391964D01*
X5006848Y-4390796D01*
G37*
G36*
X2772410Y-4417060D02*
G01*
X2769616Y-4417466D01*
X2767634Y-4418634D01*
X2766466Y-4420616D01*
X2766060Y-4423410D01*
X2766060Y-4459224D01*
X2747010Y-4459224D01*
X2744317Y-4459579D01*
X2742438Y-4460748D01*
X2741269Y-4462627D01*
X2740914Y-4465320D01*
X2741269Y-4468114D01*
X2742438Y-4470095D01*
X2744317Y-4471263D01*
X2747010Y-4471670D01*
X2766060Y-4471670D01*
X2766060Y-4546092D01*
X2766822Y-4558538D01*
X2769108Y-4569206D01*
X2772918Y-4578096D01*
X2778252Y-4585208D01*
X2785364Y-4590542D01*
X2794304Y-4594352D01*
X2805074Y-4596638D01*
X2817622Y-4597400D01*
X2820517Y-4596993D01*
X2822549Y-4595825D01*
X2823819Y-4593844D01*
X2824226Y-4591050D01*
X2823921Y-4588357D01*
X2822956Y-4586478D01*
X2822041Y-4585716D01*
X2820873Y-4585157D01*
X2819400Y-4584801D01*
X2799080Y-4582617D01*
X2787142Y-4576318D01*
X2780639Y-4564430D01*
X2778506Y-4546092D01*
X2778506Y-4471670D01*
X2817368Y-4471670D01*
X2820162Y-4471263D01*
X2822143Y-4470095D01*
X2823311Y-4468114D01*
X2823718Y-4465320D01*
X2823311Y-4462678D01*
X2822143Y-4460748D01*
X2820162Y-4459630D01*
X2817368Y-4459224D01*
X2778506Y-4459224D01*
X2778506Y-4423410D01*
X2778099Y-4420616D01*
X2776982Y-4418634D01*
X2775051Y-4417466D01*
G37*
G36*
X4008374Y-4417060D02*
G01*
X4005579Y-4417466D01*
X4003598Y-4418634D01*
X4002430Y-4420616D01*
X4002024Y-4423410D01*
X4002024Y-4459224D01*
X3983228Y-4459224D01*
X3980434Y-4459579D01*
X3978452Y-4460748D01*
X3977284Y-4462627D01*
X3976878Y-4465320D01*
X3977284Y-4468114D01*
X3978452Y-4470095D01*
X3980434Y-4471263D01*
X3983228Y-4471670D01*
X4002024Y-4471670D01*
X4002024Y-4546092D01*
X4002786Y-4558538D01*
X4005072Y-4569206D01*
X4008882Y-4578096D01*
X4014215Y-4585208D01*
X4021328Y-4590542D01*
X4030268Y-4594352D01*
X4041038Y-4596638D01*
X4053586Y-4597400D01*
X4056481Y-4596993D01*
X4058513Y-4595825D01*
X4059783Y-4593844D01*
X4060190Y-4591050D01*
X4059885Y-4588357D01*
X4058920Y-4586478D01*
X4058005Y-4585716D01*
X4056837Y-4585157D01*
X4055364Y-4584801D01*
X4035094Y-4582617D01*
X4023360Y-4576318D01*
X4016857Y-4564430D01*
X4014724Y-4546092D01*
X4014724Y-4471670D01*
X4053332Y-4471670D01*
X4056126Y-4471263D01*
X4058107Y-4470095D01*
X4059275Y-4468114D01*
X4059682Y-4465320D01*
X4059275Y-4462678D01*
X4058107Y-4460748D01*
X4056126Y-4459630D01*
X4053332Y-4459224D01*
X4014724Y-4459224D01*
X4014724Y-4423410D01*
X4014317Y-4420616D01*
X4013149Y-4418634D01*
X4011168Y-4417466D01*
G37*
G36*
X5289804Y-4458716D02*
G01*
X5283149Y-4459020D01*
X5277104Y-4459884D01*
X5271719Y-4461306D01*
X5266944Y-4463288D01*
X5262676Y-4465929D01*
X5258663Y-4469384D01*
X5255056Y-4473549D01*
X5251704Y-4478528D01*
X5251704Y-4465320D01*
X5251297Y-4462678D01*
X5250180Y-4460748D01*
X5248249Y-4459630D01*
X5245608Y-4459224D01*
X5242814Y-4459579D01*
X5240832Y-4460748D01*
X5239664Y-4462627D01*
X5239258Y-4465320D01*
X5239258Y-4591304D01*
X5239664Y-4594098D01*
X5240832Y-4596079D01*
X5242814Y-4597247D01*
X5245608Y-4597654D01*
X5248249Y-4597247D01*
X5250180Y-4596079D01*
X5251297Y-4594098D01*
X5251704Y-4591304D01*
X5251704Y-4510024D01*
X5253939Y-4492294D01*
X5260594Y-4480306D01*
X5272328Y-4473651D01*
X5289804Y-4471416D01*
X5302504Y-4471416D01*
X5316220Y-4473651D01*
X5325364Y-4480306D01*
X5330494Y-4492294D01*
X5332222Y-4510024D01*
X5332222Y-4591304D01*
X5332628Y-4594098D01*
X5333796Y-4596079D01*
X5335778Y-4597247D01*
X5338572Y-4597654D01*
X5341366Y-4597247D01*
X5343347Y-4596079D01*
X5344515Y-4594098D01*
X5344922Y-4591304D01*
X5344922Y-4510024D01*
X5347055Y-4492294D01*
X5353558Y-4480306D01*
X5365343Y-4473651D01*
X5383022Y-4471416D01*
X5395468Y-4471416D01*
X5409184Y-4473651D01*
X5418328Y-4480306D01*
X5423458Y-4492294D01*
X5425186Y-4510024D01*
X5425186Y-4591304D01*
X5425592Y-4594098D01*
X5426760Y-4596079D01*
X5428742Y-4597247D01*
X5431536Y-4597654D01*
X5434330Y-4597247D01*
X5436311Y-4596079D01*
X5437479Y-4594098D01*
X5437886Y-4591304D01*
X5437886Y-4510024D01*
X5437276Y-4497273D01*
X5435396Y-4486452D01*
X5432298Y-4477613D01*
X5427980Y-4470654D01*
X5422341Y-4465421D01*
X5415026Y-4461713D01*
X5406085Y-4459478D01*
X5395468Y-4458716D01*
X5383022Y-4458716D01*
X5368544Y-4460138D01*
X5357114Y-4464304D01*
X5348173Y-4471670D01*
X5341112Y-4482592D01*
X5338165Y-4476699D01*
X5334762Y-4471670D01*
X5330799Y-4467555D01*
X5326380Y-4464304D01*
X5315813Y-4460087D01*
X5302504Y-4458716D01*
G37*
G36*
X3090672Y-4459224D02*
G01*
X3077870Y-4459782D01*
X3066897Y-4462018D01*
X3057804Y-4465878D01*
X3050540Y-4471416D01*
X3045104Y-4478578D01*
X3041192Y-4487672D01*
X3038856Y-4498644D01*
X3038094Y-4511548D01*
X3038094Y-4520184D01*
X3050794Y-4520184D01*
X3050794Y-4511548D01*
X3053029Y-4492548D01*
X3059684Y-4480306D01*
X3071876Y-4473702D01*
X3090672Y-4471670D01*
X3115310Y-4471670D01*
X3133953Y-4473905D01*
X3146298Y-4480560D01*
X3152952Y-4492752D01*
X3155188Y-4511548D01*
X3155188Y-4520184D01*
X3038094Y-4520184D01*
X3038094Y-4545076D01*
X3038856Y-4557776D01*
X3041192Y-4568647D01*
X3045104Y-4577689D01*
X3050540Y-4584954D01*
X3057804Y-4590389D01*
X3066897Y-4594301D01*
X3077870Y-4596638D01*
X3090672Y-4597400D01*
X3115310Y-4597400D01*
X3127095Y-4596841D01*
X3137357Y-4595164D01*
X3146044Y-4592421D01*
X3153156Y-4588510D01*
X3163062Y-4577080D01*
X3167380Y-4560570D01*
X3167176Y-4557725D01*
X3166770Y-4556607D01*
X3166110Y-4555744D01*
X3164078Y-4554423D01*
X3162858Y-4554067D01*
X3160014Y-4554067D01*
X3157575Y-4554829D01*
X3156712Y-4555490D01*
X3155492Y-4557471D01*
X3153714Y-4566564D01*
X3151581Y-4571796D01*
X3148482Y-4576064D01*
X3144520Y-4579366D01*
X3132632Y-4583379D01*
X3115310Y-4584700D01*
X3090672Y-4584700D01*
X3071876Y-4582464D01*
X3059684Y-4575810D01*
X3053029Y-4563668D01*
X3050794Y-4545076D01*
X3050794Y-4532884D01*
X3161538Y-4532884D01*
X3164179Y-4532477D01*
X3166110Y-4531309D01*
X3167227Y-4529328D01*
X3167634Y-4526534D01*
X3167634Y-4511548D01*
X3166872Y-4498746D01*
X3164535Y-4487875D01*
X3160623Y-4478832D01*
X3155188Y-4471670D01*
X3148025Y-4466234D01*
X3138982Y-4462322D01*
X3128111Y-4459986D01*
X3115310Y-4459224D01*
G37*
G36*
X3515106Y-4459224D02*
G01*
X3502304Y-4459782D01*
X3491433Y-4462018D01*
X3482390Y-4465878D01*
X3475228Y-4471416D01*
X3469690Y-4478578D01*
X3465677Y-4487672D01*
X3463340Y-4498644D01*
X3462528Y-4511548D01*
X3462528Y-4545076D01*
X3475228Y-4545076D01*
X3475228Y-4511548D01*
X3475482Y-4504537D01*
X3476193Y-4498289D01*
X3477361Y-4492752D01*
X3479037Y-4487926D01*
X3481273Y-4483912D01*
X3484118Y-4480509D01*
X3487623Y-4477664D01*
X3491737Y-4475480D01*
X3496411Y-4473803D01*
X3501898Y-4472635D01*
X3508095Y-4471924D01*
X3515106Y-4471670D01*
X3539744Y-4471670D01*
X3558540Y-4473905D01*
X3570732Y-4480560D01*
X3577386Y-4492752D01*
X3579622Y-4511548D01*
X3579622Y-4544822D01*
X3577386Y-4563618D01*
X3570732Y-4575810D01*
X3558540Y-4582464D01*
X3539744Y-4584700D01*
X3515106Y-4584700D01*
X3496310Y-4582464D01*
X3484118Y-4575810D01*
X3477463Y-4563668D01*
X3475228Y-4545076D01*
X3462528Y-4545076D01*
X3463340Y-4557776D01*
X3465677Y-4568647D01*
X3469690Y-4577689D01*
X3475228Y-4584954D01*
X3482390Y-4590389D01*
X3491433Y-4594301D01*
X3502304Y-4596638D01*
X3515106Y-4597400D01*
X3539744Y-4597400D01*
X3552545Y-4596638D01*
X3563416Y-4594301D01*
X3572459Y-4590389D01*
X3579622Y-4584954D01*
X3585159Y-4577689D01*
X3589121Y-4568596D01*
X3591509Y-4557623D01*
X3592322Y-4544822D01*
X3592322Y-4511548D01*
X3591509Y-4498746D01*
X3589121Y-4487875D01*
X3585159Y-4478832D01*
X3579622Y-4471670D01*
X3572459Y-4466234D01*
X3563416Y-4462322D01*
X3552545Y-4459986D01*
X3539744Y-4459224D01*
G37*
G36*
X3692651Y-4459224D02*
G01*
X3679850Y-4459782D01*
X3668979Y-4462018D01*
X3659936Y-4465878D01*
X3652774Y-4471416D01*
X3647338Y-4478578D01*
X3643426Y-4487672D01*
X3641090Y-4498644D01*
X3640328Y-4511548D01*
X3640328Y-4545076D01*
X3652774Y-4545076D01*
X3652774Y-4511548D01*
X3653028Y-4504537D01*
X3653739Y-4498289D01*
X3654907Y-4492752D01*
X3656584Y-4487926D01*
X3658819Y-4483912D01*
X3661664Y-4480509D01*
X3665169Y-4477664D01*
X3669284Y-4475480D01*
X3673957Y-4473803D01*
X3679444Y-4472635D01*
X3685641Y-4471924D01*
X3692651Y-4471670D01*
X3717290Y-4471670D01*
X3736086Y-4473905D01*
X3748278Y-4480560D01*
X3754932Y-4492752D01*
X3757168Y-4511548D01*
X3757168Y-4544822D01*
X3754932Y-4563618D01*
X3748278Y-4575810D01*
X3736086Y-4582464D01*
X3717290Y-4584700D01*
X3692651Y-4584700D01*
X3673856Y-4582464D01*
X3661664Y-4575810D01*
X3655009Y-4563668D01*
X3652774Y-4545076D01*
X3640328Y-4545076D01*
X3641090Y-4557776D01*
X3643426Y-4568647D01*
X3647338Y-4577689D01*
X3652774Y-4584954D01*
X3659936Y-4590389D01*
X3668979Y-4594301D01*
X3679850Y-4596638D01*
X3692651Y-4597400D01*
X3717290Y-4597400D01*
X3730091Y-4596638D01*
X3740962Y-4594301D01*
X3750005Y-4590389D01*
X3757168Y-4584954D01*
X3762705Y-4577689D01*
X3766667Y-4568596D01*
X3769055Y-4557623D01*
X3769868Y-4544822D01*
X3769868Y-4511548D01*
X3769055Y-4498746D01*
X3766667Y-4487875D01*
X3762705Y-4478832D01*
X3757168Y-4471670D01*
X3750005Y-4466234D01*
X3740962Y-4462322D01*
X3730091Y-4459986D01*
X3717290Y-4459224D01*
G37*
G36*
X3827018Y-4459224D02*
G01*
X3824325Y-4459579D01*
X3822446Y-4460748D01*
X3821277Y-4462627D01*
X3820922Y-4465320D01*
X3820922Y-4591050D01*
X3821277Y-4593844D01*
X3822446Y-4595825D01*
X3824325Y-4596993D01*
X3827018Y-4597400D01*
X3829812Y-4596993D01*
X3831793Y-4595825D01*
X3832961Y-4593844D01*
X3833368Y-4591050D01*
X3833368Y-4522216D01*
X3835095Y-4510633D01*
X3838448Y-4500524D01*
X3843477Y-4491837D01*
X3850132Y-4484624D01*
X3858361Y-4478934D01*
X3868165Y-4474921D01*
X3879443Y-4472482D01*
X3892296Y-4471670D01*
X3894937Y-4471263D01*
X3896868Y-4470095D01*
X3897985Y-4468114D01*
X3898392Y-4465320D01*
X3897985Y-4462678D01*
X3896868Y-4460748D01*
X3894937Y-4459630D01*
X3892296Y-4459224D01*
X3882034Y-4459732D01*
X3872534Y-4461306D01*
X3863848Y-4463948D01*
X3855974Y-4467606D01*
X3842816Y-4478070D01*
X3833368Y-4492244D01*
X3833368Y-4465320D01*
X3832961Y-4462678D01*
X3831793Y-4460748D01*
X3829812Y-4459630D01*
G37*
G36*
X4136644Y-4459224D02*
G01*
X4123842Y-4459782D01*
X4112971Y-4462018D01*
X4103928Y-4465878D01*
X4096765Y-4471416D01*
X4091330Y-4478578D01*
X4087418Y-4487672D01*
X4085082Y-4498644D01*
X4084320Y-4511548D01*
X4084320Y-4545076D01*
X4096765Y-4545076D01*
X4096765Y-4511548D01*
X4097020Y-4504537D01*
X4097731Y-4498289D01*
X4098899Y-4492752D01*
X4100576Y-4487926D01*
X4102811Y-4483912D01*
X4105656Y-4480509D01*
X4109161Y-4477664D01*
X4113276Y-4475480D01*
X4117949Y-4473803D01*
X4123436Y-4472635D01*
X4129633Y-4471924D01*
X4136644Y-4471670D01*
X4161282Y-4471670D01*
X4180078Y-4473905D01*
X4192270Y-4480560D01*
X4198924Y-4492752D01*
X4201160Y-4511548D01*
X4201160Y-4544822D01*
X4198924Y-4563618D01*
X4192270Y-4575810D01*
X4180078Y-4582464D01*
X4161282Y-4584700D01*
X4136644Y-4584700D01*
X4117848Y-4582464D01*
X4105656Y-4575810D01*
X4099001Y-4563668D01*
X4096765Y-4545076D01*
X4084320Y-4545076D01*
X4085082Y-4557776D01*
X4087418Y-4568647D01*
X4091330Y-4577689D01*
X4096765Y-4584954D01*
X4103928Y-4590389D01*
X4112971Y-4594301D01*
X4123842Y-4596638D01*
X4136644Y-4597400D01*
X4161282Y-4597400D01*
X4174083Y-4596638D01*
X4185005Y-4594301D01*
X4194149Y-4590389D01*
X4201414Y-4584954D01*
X4206849Y-4577689D01*
X4210761Y-4568596D01*
X4213098Y-4557623D01*
X4213860Y-4544822D01*
X4213860Y-4511548D01*
X4213098Y-4498746D01*
X4210761Y-4487875D01*
X4206849Y-4478832D01*
X4201414Y-4471670D01*
X4194149Y-4466234D01*
X4185005Y-4462322D01*
X4174083Y-4459986D01*
X4161282Y-4459224D01*
G37*
G36*
X4432808Y-4459224D02*
G01*
X4430014Y-4459579D01*
X4428032Y-4460748D01*
X4426864Y-4462627D01*
X4426458Y-4465320D01*
X4426458Y-4591050D01*
X4426864Y-4593844D01*
X4428032Y-4595825D01*
X4430014Y-4596993D01*
X4432808Y-4597400D01*
X4435602Y-4596993D01*
X4437583Y-4595825D01*
X4438751Y-4593844D01*
X4439158Y-4591050D01*
X4439158Y-4522216D01*
X4440885Y-4510633D01*
X4444238Y-4500524D01*
X4449267Y-4491837D01*
X4455922Y-4484624D01*
X4464151Y-4478934D01*
X4473905Y-4474921D01*
X4485132Y-4472482D01*
X4497832Y-4471670D01*
X4500626Y-4471263D01*
X4502607Y-4470095D01*
X4503775Y-4468114D01*
X4504182Y-4465320D01*
X4503775Y-4462678D01*
X4502607Y-4460748D01*
X4500626Y-4459630D01*
X4497832Y-4459224D01*
X4487672Y-4459732D01*
X4478274Y-4461306D01*
X4469638Y-4463948D01*
X4461764Y-4467606D01*
X4448505Y-4478070D01*
X4439158Y-4492244D01*
X4439158Y-4465320D01*
X4438751Y-4462678D01*
X4437583Y-4460748D01*
X4435602Y-4459630D01*
G37*
G36*
X4578096Y-4459224D02*
G01*
X4565294Y-4459782D01*
X4554321Y-4462018D01*
X4545228Y-4465878D01*
X4537964Y-4471416D01*
X4532528Y-4478578D01*
X4528616Y-4487672D01*
X4526280Y-4498644D01*
X4525518Y-4511548D01*
X4525518Y-4520184D01*
X4538218Y-4520184D01*
X4538218Y-4511548D01*
X4540453Y-4492548D01*
X4547108Y-4480306D01*
X4559300Y-4473702D01*
X4578096Y-4471670D01*
X4602734Y-4471670D01*
X4621326Y-4473905D01*
X4633468Y-4480560D01*
X4640326Y-4492752D01*
X4642612Y-4511548D01*
X4642612Y-4520184D01*
X4525518Y-4520184D01*
X4525518Y-4545076D01*
X4526280Y-4557776D01*
X4528616Y-4568647D01*
X4532528Y-4577689D01*
X4537964Y-4584954D01*
X4545228Y-4590389D01*
X4554321Y-4594301D01*
X4565294Y-4596638D01*
X4578096Y-4597400D01*
X4602734Y-4597400D01*
X4614519Y-4596841D01*
X4624781Y-4595164D01*
X4633468Y-4592421D01*
X4640580Y-4588510D01*
X4650486Y-4577080D01*
X4654804Y-4560570D01*
X4654600Y-4557725D01*
X4654194Y-4556607D01*
X4653534Y-4555744D01*
X4651451Y-4554423D01*
X4650130Y-4554067D01*
X4647285Y-4554067D01*
X4644999Y-4554829D01*
X4643424Y-4556353D01*
X4642408Y-4558792D01*
X4640986Y-4566564D01*
X4638903Y-4571796D01*
X4635906Y-4576064D01*
X4631944Y-4579366D01*
X4620056Y-4583379D01*
X4602734Y-4584700D01*
X4578096Y-4584700D01*
X4559300Y-4582464D01*
X4547108Y-4575810D01*
X4540453Y-4563668D01*
X4538218Y-4545076D01*
X4538218Y-4532884D01*
X4648708Y-4532884D01*
X4651502Y-4532477D01*
X4653483Y-4531309D01*
X4654651Y-4529328D01*
X4655058Y-4526534D01*
X4655058Y-4511548D01*
X4654296Y-4498746D01*
X4651959Y-4487875D01*
X4648047Y-4478832D01*
X4642612Y-4471670D01*
X4635449Y-4466234D01*
X4626406Y-4462322D01*
X4615535Y-4459986D01*
X4602734Y-4459224D01*
G37*
G36*
X4755642Y-4459224D02*
G01*
X4742840Y-4459782D01*
X4731969Y-4462018D01*
X4722926Y-4465878D01*
X4715764Y-4471416D01*
X4710226Y-4478578D01*
X4706213Y-4487672D01*
X4703876Y-4498644D01*
X4703064Y-4511548D01*
X4703064Y-4520184D01*
X4715764Y-4520184D01*
X4715764Y-4511548D01*
X4717999Y-4492548D01*
X4724654Y-4480306D01*
X4736846Y-4473702D01*
X4755642Y-4471670D01*
X4780280Y-4471670D01*
X4799076Y-4473905D01*
X4811268Y-4480560D01*
X4817922Y-4492752D01*
X4820158Y-4511548D01*
X4820158Y-4520184D01*
X4703064Y-4520184D01*
X4703064Y-4545076D01*
X4703876Y-4557776D01*
X4706213Y-4568647D01*
X4710226Y-4577689D01*
X4715764Y-4584954D01*
X4722926Y-4590389D01*
X4731969Y-4594301D01*
X4742840Y-4596638D01*
X4755642Y-4597400D01*
X4780280Y-4597400D01*
X4792065Y-4596841D01*
X4802327Y-4595164D01*
X4811014Y-4592421D01*
X4818126Y-4588510D01*
X4828032Y-4577080D01*
X4832350Y-4560570D01*
X4832146Y-4557725D01*
X4831740Y-4556607D01*
X4831080Y-4555744D01*
X4829048Y-4554423D01*
X4827828Y-4554067D01*
X4824984Y-4554067D01*
X4822545Y-4554829D01*
X4821682Y-4555490D01*
X4820462Y-4557471D01*
X4818684Y-4566564D01*
X4816551Y-4571796D01*
X4813452Y-4576064D01*
X4809490Y-4579366D01*
X4797602Y-4583379D01*
X4780280Y-4584700D01*
X4755642Y-4584700D01*
X4736846Y-4582464D01*
X4724654Y-4575810D01*
X4717999Y-4563668D01*
X4715764Y-4545076D01*
X4715764Y-4532884D01*
X4826508Y-4532884D01*
X4829149Y-4532477D01*
X4831080Y-4531309D01*
X4832197Y-4529328D01*
X4832604Y-4526534D01*
X4832604Y-4511548D01*
X4831842Y-4498746D01*
X4829505Y-4487875D01*
X4825593Y-4478832D01*
X4820158Y-4471670D01*
X4812995Y-4466234D01*
X4803952Y-4462322D01*
X4793081Y-4459986D01*
X4780280Y-4459224D01*
G37*
G36*
X5110988Y-4459224D02*
G01*
X5098186Y-4459782D01*
X5087315Y-4462018D01*
X5078272Y-4465878D01*
X5071110Y-4471416D01*
X5065674Y-4478578D01*
X5061762Y-4487672D01*
X5059426Y-4498644D01*
X5058664Y-4511548D01*
X5058664Y-4545076D01*
X5071110Y-4545076D01*
X5071110Y-4511548D01*
X5071364Y-4504537D01*
X5072075Y-4498289D01*
X5073243Y-4492752D01*
X5074920Y-4487926D01*
X5077256Y-4483912D01*
X5080101Y-4480509D01*
X5083606Y-4477664D01*
X5087620Y-4475480D01*
X5092395Y-4473803D01*
X5097881Y-4472635D01*
X5104079Y-4471924D01*
X5110988Y-4471670D01*
X5135626Y-4471670D01*
X5154422Y-4473905D01*
X5166614Y-4480560D01*
X5173268Y-4492752D01*
X5175504Y-4511548D01*
X5175504Y-4544822D01*
X5173268Y-4563618D01*
X5166614Y-4575810D01*
X5154422Y-4582464D01*
X5135626Y-4584700D01*
X5110988Y-4584700D01*
X5092395Y-4582464D01*
X5080254Y-4575810D01*
X5073396Y-4563668D01*
X5071110Y-4545076D01*
X5058664Y-4545076D01*
X5059426Y-4557776D01*
X5061762Y-4568647D01*
X5065674Y-4577689D01*
X5071110Y-4584954D01*
X5078272Y-4590389D01*
X5087315Y-4594301D01*
X5098186Y-4596638D01*
X5110988Y-4597400D01*
X5135626Y-4597400D01*
X5148427Y-4596638D01*
X5159349Y-4594301D01*
X5168493Y-4590389D01*
X5175758Y-4584954D01*
X5181193Y-4577689D01*
X5185105Y-4568596D01*
X5187442Y-4557623D01*
X5188204Y-4544822D01*
X5188204Y-4511548D01*
X5187442Y-4498746D01*
X5185105Y-4487875D01*
X5181193Y-4478832D01*
X5175758Y-4471670D01*
X5168493Y-4466234D01*
X5159349Y-4462322D01*
X5148427Y-4459986D01*
X5135626Y-4459224D01*
G37*
D10*
X2522603Y-5018531D02*
G01*
X2512951Y-5027929D01*
X2503299Y-5042407D01*
X2493901Y-5061457D01*
X2489075Y-5085334D01*
X2489075Y-5104384D01*
X2493901Y-5128260D01*
X2503299Y-5147310D01*
X2512951Y-5161534D01*
X2522603Y-5171186D01*
X2625473Y-5061457D02*
G01*
X2620901Y-5051805D01*
X2611249Y-5042407D01*
X2601597Y-5037581D01*
X2582547Y-5037581D01*
X2573149Y-5042407D01*
X2563497Y-5051805D01*
X2558671Y-5061457D01*
X2554099Y-5075681D01*
X2554099Y-5099557D01*
X2558671Y-5114036D01*
X2563497Y-5123434D01*
X2573149Y-5133086D01*
X2582547Y-5137657D01*
X2601597Y-5137657D01*
X2611249Y-5133086D01*
X2620901Y-5123434D01*
X2625473Y-5114036D01*
X2656969Y-5018531D02*
G01*
X2666621Y-5027929D01*
X2676273Y-5042407D01*
X2685671Y-5061457D01*
X2690497Y-5085334D01*
X2690497Y-5104384D01*
X2685671Y-5128260D01*
X2676273Y-5147310D01*
X2666621Y-5161534D01*
X2656969Y-5171186D01*
X2800225Y-5061457D02*
G01*
X2800225Y-5056631D01*
X2805051Y-5046979D01*
X2809877Y-5042407D01*
X2819275Y-5037581D01*
X2838325Y-5037581D01*
X2847977Y-5042407D01*
X2852803Y-5046979D01*
X2857629Y-5056631D01*
X2857629Y-5066284D01*
X2852803Y-5075681D01*
X2843151Y-5090160D01*
X2795399Y-5137657D01*
X2862201Y-5137657D01*
X2922399Y-5037581D02*
G01*
X2908175Y-5042407D01*
X2898523Y-5056631D01*
X2893697Y-5080507D01*
X2893697Y-5094731D01*
X2898523Y-5118607D01*
X2908175Y-5133086D01*
X2922399Y-5137657D01*
X2932051Y-5137657D01*
X2946275Y-5133086D01*
X2955927Y-5118607D01*
X2960499Y-5094731D01*
X2960499Y-5080507D01*
X2955927Y-5056631D01*
X2946275Y-5042407D01*
X2932051Y-5037581D01*
X2922399Y-5037581D01*
X2996821Y-5061457D02*
G01*
X2996821Y-5056631D01*
X3001647Y-5046979D01*
X3006473Y-5042407D01*
X3015871Y-5037581D01*
X3035175Y-5037581D01*
X3044573Y-5042407D01*
X3049399Y-5046979D01*
X3054225Y-5056631D01*
X3054225Y-5066284D01*
X3049399Y-5075681D01*
X3039747Y-5090160D01*
X2991995Y-5137657D01*
X3059051Y-5137657D01*
X3099945Y-5037581D02*
G01*
X3152523Y-5037581D01*
X3123821Y-5075681D01*
X3138045Y-5075681D01*
X3147697Y-5080507D01*
X3152523Y-5085334D01*
X3157349Y-5099557D01*
X3157349Y-5109210D01*
X3152523Y-5123434D01*
X3142871Y-5133086D01*
X3128647Y-5137657D01*
X3114423Y-5137657D01*
X3099945Y-5133086D01*
X3095119Y-5128260D01*
X3090547Y-5118607D01*
X3262251Y-5037581D02*
G01*
X3262251Y-5137657D01*
X3262251Y-5037581D02*
G01*
X3305177Y-5037581D01*
X3319401Y-5042407D01*
X3324227Y-5046979D01*
X3329053Y-5056631D01*
X3329053Y-5066284D01*
X3324227Y-5075681D01*
X3319401Y-5080507D01*
X3305177Y-5085334D01*
X3262251Y-5085334D01*
X3295779Y-5085334D02*
G01*
X3329053Y-5137657D01*
X3389251Y-5037581D02*
G01*
X3379599Y-5042407D01*
X3370201Y-5051805D01*
X3365375Y-5061457D01*
X3360549Y-5075681D01*
X3360549Y-5099557D01*
X3365375Y-5114036D01*
X3370201Y-5123434D01*
X3379599Y-5133086D01*
X3389251Y-5137657D01*
X3408301Y-5137657D01*
X3417953Y-5133086D01*
X3427351Y-5123434D01*
X3432177Y-5114036D01*
X3437003Y-5099557D01*
X3437003Y-5075681D01*
X3432177Y-5061457D01*
X3427351Y-5051805D01*
X3417953Y-5042407D01*
X3408301Y-5037581D01*
X3389251Y-5037581D01*
X3468499Y-5037581D02*
G01*
X3468499Y-5137657D01*
X3468499Y-5037581D02*
G01*
X3511425Y-5037581D01*
X3525649Y-5042407D01*
X3530475Y-5046979D01*
X3535301Y-5056631D01*
X3535301Y-5066284D01*
X3530475Y-5075681D01*
X3525649Y-5080507D01*
X3511425Y-5085334D01*
X3468499Y-5085334D02*
G01*
X3511425Y-5085334D01*
X3525649Y-5090160D01*
X3530475Y-5094731D01*
X3535301Y-5104384D01*
X3535301Y-5118607D01*
X3530475Y-5128260D01*
X3525649Y-5133086D01*
X3511425Y-5137657D01*
X3468499Y-5137657D01*
X3566797Y-5037581D02*
G01*
X3566797Y-5137657D01*
X3598293Y-5037581D02*
G01*
X3598293Y-5137657D01*
X3598293Y-5037581D02*
G01*
X3665095Y-5137657D01*
X3665095Y-5037581D02*
G01*
X3665095Y-5137657D01*
X3769997Y-5037581D02*
G01*
X3769997Y-5137657D01*
X3769997Y-5037581D02*
G01*
X3803525Y-5037581D01*
X3817749Y-5042407D01*
X3827401Y-5051805D01*
X3832227Y-5061457D01*
X3836799Y-5075681D01*
X3836799Y-5099557D01*
X3832227Y-5114036D01*
X3827401Y-5123434D01*
X3817749Y-5133086D01*
X3803525Y-5137657D01*
X3769997Y-5137657D01*
X3868295Y-5037581D02*
G01*
X3868295Y-5109210D01*
X3873121Y-5123434D01*
X3882773Y-5133086D01*
X3896997Y-5137657D01*
X3906649Y-5137657D01*
X3920873Y-5133086D01*
X3930525Y-5123434D01*
X3935097Y-5109210D01*
X3935097Y-5037581D01*
X3966593Y-5037581D02*
G01*
X3966593Y-5137657D01*
X3966593Y-5037581D02*
G01*
X4009773Y-5037581D01*
X4023997Y-5042407D01*
X4028823Y-5046979D01*
X4033649Y-5056631D01*
X4033649Y-5066284D01*
X4028823Y-5075681D01*
X4023997Y-5080507D01*
X4009773Y-5085334D01*
X3966593Y-5085334D02*
G01*
X4009773Y-5085334D01*
X4023997Y-5090160D01*
X4028823Y-5094731D01*
X4033649Y-5104384D01*
X4033649Y-5118607D01*
X4028823Y-5128260D01*
X4023997Y-5133086D01*
X4009773Y-5137657D01*
X3966593Y-5137657D01*
X4065145Y-5037581D02*
G01*
X4065145Y-5137657D01*
X4065145Y-5037581D02*
G01*
X4108071Y-5037581D01*
X4122295Y-5042407D01*
X4127121Y-5046979D01*
X4131947Y-5056631D01*
X4131947Y-5066284D01*
X4127121Y-5075681D01*
X4122295Y-5080507D01*
X4108071Y-5085334D01*
X4065145Y-5085334D01*
X4098419Y-5085334D02*
G01*
X4131947Y-5137657D01*
X4163443Y-5037581D02*
G01*
X4163443Y-5137657D01*
X4163443Y-5037581D02*
G01*
X4225419Y-5037581D01*
X4163443Y-5085334D02*
G01*
X4201543Y-5085334D01*
X4163443Y-5137657D02*
G01*
X4225419Y-5137657D01*
X4256915Y-5037581D02*
G01*
X4256915Y-5109210D01*
X4261741Y-5123434D01*
X4271139Y-5133086D01*
X4285617Y-5137657D01*
X4295015Y-5137657D01*
X4309493Y-5133086D01*
X4318891Y-5123434D01*
X4323717Y-5109210D01*
X4323717Y-5037581D01*
X4355213Y-5037581D02*
G01*
X4355213Y-5137657D01*
X4386709Y-5037581D02*
G01*
X4386709Y-5137657D01*
X4386709Y-5137657D02*
G01*
X4443859Y-5137657D01*
X4620643Y-5061457D02*
G01*
X4615817Y-5051805D01*
X4606165Y-5042407D01*
X4596767Y-5037581D01*
X4577717Y-5037581D01*
X4568065Y-5042407D01*
X4558413Y-5051805D01*
X4553841Y-5061457D01*
X4549015Y-5075681D01*
X4549015Y-5099557D01*
X4553841Y-5114036D01*
X4558413Y-5123434D01*
X4568065Y-5133086D01*
X4577717Y-5137657D01*
X4596767Y-5137657D01*
X4606165Y-5133086D01*
X4615817Y-5123434D01*
X4620643Y-5114036D01*
X4723767Y-5061457D02*
G01*
X4718941Y-5051805D01*
X4709289Y-5042407D01*
X4699891Y-5037581D01*
X4680587Y-5037581D01*
X4671189Y-5042407D01*
X4661537Y-5051805D01*
X4656965Y-5061457D01*
X4652139Y-5075681D01*
X4652139Y-5099557D01*
X4656965Y-5114036D01*
X4661537Y-5123434D01*
X4671189Y-5133086D01*
X4680587Y-5137657D01*
X4699891Y-5137657D01*
X4709289Y-5133086D01*
X4718941Y-5123434D01*
X4723767Y-5114036D01*
X4755263Y-5094731D02*
G01*
X4841115Y-5094731D01*
X4872611Y-5037581D02*
G01*
X4872611Y-5137657D01*
X4872611Y-5037581D02*
G01*
X4915537Y-5037581D01*
X4929761Y-5042407D01*
X4934587Y-5046979D01*
X4939413Y-5056631D01*
X4939413Y-5066284D01*
X4934587Y-5075681D01*
X4929761Y-5080507D01*
X4915537Y-5085334D01*
X4872611Y-5085334D02*
G01*
X4915537Y-5085334D01*
X4929761Y-5090160D01*
X4934587Y-5094731D01*
X4939413Y-5104384D01*
X4939413Y-5118607D01*
X4934587Y-5128260D01*
X4929761Y-5133086D01*
X4915537Y-5137657D01*
X4872611Y-5137657D01*
X4970909Y-5037581D02*
G01*
X5009009Y-5085334D01*
X5009009Y-5137657D01*
X5047363Y-5037581D02*
G01*
X5009009Y-5085334D01*
X5078859Y-5094731D02*
G01*
X5164711Y-5094731D01*
X5196207Y-5037581D02*
G01*
X5196207Y-5137657D01*
X5196207Y-5037581D02*
G01*
X5263009Y-5137657D01*
X5263009Y-5037581D02*
G01*
X5263009Y-5137657D01*
X5366133Y-5061457D02*
G01*
X5361307Y-5051805D01*
X5351655Y-5042407D01*
X5342257Y-5037581D01*
X5323207Y-5037581D01*
X5313555Y-5042407D01*
X5303903Y-5051805D01*
X5299331Y-5061457D01*
X5294505Y-5075681D01*
X5294505Y-5099557D01*
X5299331Y-5114036D01*
X5303903Y-5123434D01*
X5313555Y-5133086D01*
X5323207Y-5137657D01*
X5342257Y-5137657D01*
X5351655Y-5133086D01*
X5361307Y-5123434D01*
X5366133Y-5114036D01*
X5397629Y-5094731D02*
G01*
X5483481Y-5094731D01*
X5581779Y-5051805D02*
G01*
X5572127Y-5042407D01*
X5557903Y-5037581D01*
X5538853Y-5037581D01*
X5524629Y-5042407D01*
X5514977Y-5051805D01*
X5514977Y-5061457D01*
X5519803Y-5070855D01*
X5524629Y-5075681D01*
X5534027Y-5080507D01*
X5562729Y-5090160D01*
X5572127Y-5094731D01*
X5576953Y-5099557D01*
X5581779Y-5109210D01*
X5581779Y-5123434D01*
X5572127Y-5133086D01*
X5557903Y-5137657D01*
X5538853Y-5137657D01*
X5524629Y-5133086D01*
X5514977Y-5123434D01*
X5651375Y-5037581D02*
G01*
X5613275Y-5137657D01*
X5651375Y-5037581D02*
G01*
X5689729Y-5137657D01*
X5627499Y-5104384D02*
G01*
X5675251Y-5104384D01*
D11*
X3881117Y-4738370D02*
G01*
X3817363Y-4905247D01*
X3881117Y-4738370D02*
G01*
X3944617Y-4905247D01*
X3841239Y-4849621D02*
G01*
X3920741Y-4849621D01*
X3997195Y-4770120D02*
G01*
X4012943Y-4762245D01*
X4036819Y-4738370D01*
X4036819Y-4905247D01*
X4097271Y-4865623D02*
G01*
X4089397Y-4873497D01*
X4097271Y-4881371D01*
X4105399Y-4873497D01*
X4097271Y-4865623D01*
X4205475Y-4738370D02*
G01*
X4181599Y-4746244D01*
X4165851Y-4770120D01*
X4157723Y-4809997D01*
X4157723Y-4833873D01*
X4165851Y-4873497D01*
X4181599Y-4897373D01*
X4205475Y-4905247D01*
X4221477Y-4905247D01*
X4245353Y-4897373D01*
X4261355Y-4873497D01*
X4269229Y-4833873D01*
X4269229Y-4809997D01*
X4261355Y-4770120D01*
X4245353Y-4746244D01*
X4221477Y-4738370D01*
X4205475Y-4738370D01*
X4321807Y-4770120D02*
G01*
X4337555Y-4762245D01*
X4361431Y-4738370D01*
X4361431Y-4905247D01*
D12*
X4379722Y-3950207D02*
G01*
X4385056Y-3960621D01*
X4395470Y-3971036D01*
X4405629Y-3976115D01*
X4426458Y-3976115D01*
X4436872Y-3971036D01*
X4447286Y-3960621D01*
X4452620Y-3950207D01*
X4457700Y-3934460D01*
X4457700Y-3908552D01*
X4452620Y-3893057D01*
X4447286Y-3882644D01*
X4436872Y-3872229D01*
X4426458Y-3867150D01*
X4405629Y-3867150D01*
X4395470Y-3872229D01*
X4385056Y-3882644D01*
X4379722Y-3893057D01*
X4345431Y-3955287D02*
G01*
X4335018Y-3960621D01*
X4319524Y-3976115D01*
X4319524Y-3867150D01*
X4265422Y-2972307D02*
G01*
X4270756Y-2982721D01*
X4281170Y-2993136D01*
X4291329Y-2998215D01*
X4312158Y-2998215D01*
X4322572Y-2993136D01*
X4332986Y-2982721D01*
X4338320Y-2972307D01*
X4343400Y-2956560D01*
X4343400Y-2930652D01*
X4338320Y-2915157D01*
X4332986Y-2904744D01*
X4322572Y-2894329D01*
X4312158Y-2889250D01*
X4291329Y-2889250D01*
X4281170Y-2894329D01*
X4270756Y-2904744D01*
X4265422Y-2915157D01*
X4220718Y-2998215D02*
G01*
X4163568Y-2998215D01*
X4194809Y-2956560D01*
X4179315Y-2956560D01*
X4168902Y-2951479D01*
X4163568Y-2946400D01*
X4158488Y-2930652D01*
X4158488Y-2920237D01*
X4163568Y-2904744D01*
X4173981Y-2894329D01*
X4189729Y-2889250D01*
X4205224Y-2889250D01*
X4220718Y-2894329D01*
X4226052Y-2899410D01*
X4231131Y-2909823D01*
X4673600Y-3391915D02*
G01*
X4673600Y-3282950D01*
X4673600Y-3391915D02*
G01*
X4637277Y-3391915D01*
X4621529Y-3386836D01*
X4611370Y-3376421D01*
X4606036Y-3366007D01*
X4600956Y-3350260D01*
X4600956Y-3324352D01*
X4606036Y-3308857D01*
X4611370Y-3298444D01*
X4621529Y-3288029D01*
X4637277Y-3282950D01*
X4673600Y-3282950D01*
X4566665Y-3371087D02*
G01*
X4556252Y-3376421D01*
X4540504Y-3391915D01*
X4540504Y-3282950D01*
X3630929Y-2782315D02*
G01*
X3630929Y-2699257D01*
X3636263Y-2683510D01*
X3641343Y-2678429D01*
X3651758Y-2673350D01*
X3662172Y-2673350D01*
X3672586Y-2678429D01*
X3677920Y-2683510D01*
X3683000Y-2699257D01*
X3683000Y-2709671D01*
X3591559Y-2756407D02*
G01*
X3591559Y-2761487D01*
X3586479Y-2771902D01*
X3581145Y-2777236D01*
X3570731Y-2782315D01*
X3549904Y-2782315D01*
X3539490Y-2777236D01*
X3534409Y-2771902D01*
X3529329Y-2761487D01*
X3529329Y-2751073D01*
X3534409Y-2740660D01*
X3544824Y-2725165D01*
X3596640Y-2673350D01*
X3523995Y-2673350D01*
X3150615Y-3365500D02*
G01*
X3041650Y-3365500D01*
X3150615Y-3365500D02*
G01*
X3150615Y-3412236D01*
X3145536Y-3427729D01*
X3140202Y-3433063D01*
X3129788Y-3438144D01*
X3119374Y-3438144D01*
X3108959Y-3433063D01*
X3103879Y-3427729D01*
X3098800Y-3412236D01*
X3098800Y-3365500D01*
X3098800Y-3401821D02*
G01*
X3041650Y-3438144D01*
X3129788Y-3472434D02*
G01*
X3135122Y-3482847D01*
X3150615Y-3498595D01*
X3041650Y-3498595D01*
X5040884Y-3911600D02*
G01*
X5149850Y-3911600D01*
X5040884Y-3911600D02*
G01*
X5040884Y-3864863D01*
X5045963Y-3849370D01*
X5051297Y-3844036D01*
X5061711Y-3838955D01*
X5072125Y-3838955D01*
X5082540Y-3844036D01*
X5087620Y-3849370D01*
X5092700Y-3864863D01*
X5092700Y-3911600D01*
X5092700Y-3875278D02*
G01*
X5149850Y-3838955D01*
X5066791Y-3799331D02*
G01*
X5061711Y-3799331D01*
X5051297Y-3794252D01*
X5045963Y-3788918D01*
X5040884Y-3778504D01*
X5040884Y-3757929D01*
X5045963Y-3747515D01*
X5051297Y-3742181D01*
X5061711Y-3737102D01*
X5072125Y-3737102D01*
X5082540Y-3742181D01*
X5098034Y-3752595D01*
X5149850Y-3804665D01*
X5149850Y-3731768D01*
X3008884Y-3911600D02*
G01*
X3117850Y-3911600D01*
X3008884Y-3911600D02*
G01*
X3008884Y-3864863D01*
X3013963Y-3849370D01*
X3019297Y-3844036D01*
X3029711Y-3838955D01*
X3040125Y-3838955D01*
X3050540Y-3844036D01*
X3055620Y-3849370D01*
X3060700Y-3864863D01*
X3060700Y-3911600D01*
X3060700Y-3875278D02*
G01*
X3117850Y-3838955D01*
X3008884Y-3794252D02*
G01*
X3008884Y-3737102D01*
X3050540Y-3768089D01*
X3050540Y-3752595D01*
X3055620Y-3742181D01*
X3060700Y-3737102D01*
X3076447Y-3731768D01*
X3086861Y-3731768D01*
X3102356Y-3737102D01*
X3112770Y-3747515D01*
X3117850Y-3763010D01*
X3117850Y-3778504D01*
X3112770Y-3794252D01*
X3107690Y-3799331D01*
X3097275Y-3804665D01*
X4786884Y-3911600D02*
G01*
X4895850Y-3911600D01*
X4786884Y-3911600D02*
G01*
X4786884Y-3864863D01*
X4791963Y-3849370D01*
X4797297Y-3844036D01*
X4807711Y-3838955D01*
X4818125Y-3838955D01*
X4828540Y-3844036D01*
X4833620Y-3849370D01*
X4838700Y-3864863D01*
X4838700Y-3911600D01*
X4838700Y-3875278D02*
G01*
X4895850Y-3838955D01*
X4786884Y-3752595D02*
G01*
X4859527Y-3804665D01*
X4859527Y-3726687D01*
X4786884Y-3752595D02*
G01*
X4895850Y-3752595D01*
X4089400Y-3188715D02*
G01*
X4089400Y-3079750D01*
X4089400Y-3188715D02*
G01*
X4042663Y-3188715D01*
X4027170Y-3183636D01*
X4021836Y-3178302D01*
X4016756Y-3167887D01*
X4016756Y-3157473D01*
X4021836Y-3147060D01*
X4027170Y-3141979D01*
X4042663Y-3136900D01*
X4089400Y-3136900D01*
X4053077Y-3136900D02*
G01*
X4016756Y-3079750D01*
X3919981Y-3188715D02*
G01*
X3972052Y-3188715D01*
X3977131Y-3141979D01*
X3972052Y-3147060D01*
X3956304Y-3152394D01*
X3940809Y-3152394D01*
X3925315Y-3147060D01*
X3914902Y-3136900D01*
X3909568Y-3121152D01*
X3909568Y-3110737D01*
X3914902Y-3095244D01*
X3925315Y-3084829D01*
X3940809Y-3079750D01*
X3956304Y-3079750D01*
X3972052Y-3084829D01*
X3977131Y-3089910D01*
X3982465Y-3100323D01*
X4215384Y-3695700D02*
G01*
X4324350Y-3695700D01*
X4215384Y-3695700D02*
G01*
X4215384Y-3648963D01*
X4220463Y-3633470D01*
X4225797Y-3628136D01*
X4236211Y-3623055D01*
X4246625Y-3623055D01*
X4257040Y-3628136D01*
X4262120Y-3633470D01*
X4267200Y-3648963D01*
X4267200Y-3695700D01*
X4267200Y-3659378D02*
G01*
X4324350Y-3623055D01*
X4230877Y-3526281D02*
G01*
X4220463Y-3531615D01*
X4215384Y-3547110D01*
X4215384Y-3557523D01*
X4220463Y-3573018D01*
X4236211Y-3583431D01*
X4262120Y-3588765D01*
X4288027Y-3588765D01*
X4308856Y-3583431D01*
X4319270Y-3573018D01*
X4324350Y-3557523D01*
X4324350Y-3552189D01*
X4319270Y-3536695D01*
X4308856Y-3526281D01*
X4293361Y-3521202D01*
X4288027Y-3521202D01*
X4272534Y-3526281D01*
X4262120Y-3536695D01*
X4257040Y-3552189D01*
X4257040Y-3557523D01*
X4262120Y-3573018D01*
X4272534Y-3583431D01*
X4288027Y-3588765D01*
X4076669Y-3974160D02*
G01*
X4155678Y-3974160D01*
X4155678Y-3874439D02*
G01*
X4076669Y-3874439D01*
X4061429Y-3889679D02*
G01*
X4061429Y-3958920D01*
X4279930Y-3974160D02*
G01*
X4200921Y-3974160D01*
X4200921Y-3874439D02*
G01*
X4279930Y-3874439D01*
X4295170Y-3889679D02*
G01*
X4295170Y-3958920D01*
X4140169Y-2856560D02*
G01*
X4219178Y-2856560D01*
X4219178Y-2756839D02*
G01*
X4140169Y-2756839D01*
X4124929Y-2772079D02*
G01*
X4124929Y-2841320D01*
X4343430Y-2856560D02*
G01*
X4264421Y-2856560D01*
X4264421Y-2756839D02*
G01*
X4343430Y-2756839D01*
X4358670Y-2772079D02*
G01*
X4358670Y-2841320D01*
D13*
X4241800Y-3289300D02*
G01*
X4241800Y-3390900D01*
X4343400Y-3380739D02*
G01*
X4241800Y-3340100D01*
X4343400Y-3299460D02*
G01*
X4343400Y-3380739D01*
X4241800Y-3340100D02*
G01*
X4343400Y-3299460D01*
X4442599Y-3440099D02*
G01*
X4142600Y-3440099D01*
X4442599Y-3240100D02*
G01*
X4142600Y-3240100D01*
X4216400Y-3340100D02*
G01*
X4368800Y-3340100D01*
X4787993Y-1138196D02*
G01*
X4787993Y-1432199D01*
X3593785Y-2638196D02*
G01*
X3779001Y-2638196D01*
X3593795Y-2638170D02*
G01*
X3515055Y-2638170D01*
X3515055Y-2428112D01*
X3513998Y-2428196D01*
X3265998Y-1711314D02*
G01*
X3265998Y-2428194D01*
X3514999Y-2428196D01*
X4789998Y-2433193D02*
G01*
X4789998Y-1717192D01*
X4787993Y-1138196D02*
G01*
X3264001Y-1138196D01*
X3264001Y-1138196D02*
G01*
X3264001Y-1437198D01*
D12*
X2880339Y-3471621D02*
G01*
X2880339Y-3567508D01*
X3012460Y-3567508D01*
X3012460Y-3471621D01*
X2880339Y-3386378D02*
G01*
X2880339Y-3290491D01*
X3012460Y-3290491D01*
X3012460Y-3386378D01*
X5282260Y-3934221D02*
G01*
X5282260Y-4006024D01*
X5182539Y-4006024D01*
X5182539Y-3934221D01*
X5282260Y-3888978D02*
G01*
X5282260Y-3817175D01*
X5182539Y-3817175D01*
X5182539Y-3888978D01*
X3250260Y-3934221D02*
G01*
X3250260Y-4006024D01*
X3150539Y-4006024D01*
X3150539Y-3934221D01*
X3250260Y-3888978D02*
G01*
X3250260Y-3817175D01*
X3150539Y-3817175D01*
X3150539Y-3888978D01*
X5028260Y-3934221D02*
G01*
X5028260Y-4006024D01*
X4928539Y-4006024D01*
X4928539Y-3934221D01*
X5028260Y-3888978D02*
G01*
X5028260Y-3817175D01*
X4928539Y-3817175D01*
X4928539Y-3888978D01*
X3977878Y-3047060D02*
G01*
X3906075Y-3047060D01*
X3906075Y-2947339D01*
X3977878Y-2947339D01*
X4023121Y-3047060D02*
G01*
X4094924Y-3047060D01*
X4094924Y-2947339D01*
X4023121Y-2947339D01*
X4193560Y-3564178D02*
G01*
X4193560Y-3468291D01*
X4061439Y-3468291D01*
X4061439Y-3564178D01*
X4193560Y-3649421D02*
G01*
X4193560Y-3745308D01*
X4061439Y-3745308D01*
X4061439Y-3649421D01*
G75*
G01*
X4076670Y-3874440D02*
G03*
X4061430Y-3889680I0J-15240D01*
G75*
G01*
X4061430Y-3958920D02*
G03*
X4076670Y-3974160I15240J0D01*
G75*
G01*
X4279930Y-3874440D02*
G02*
X4295170Y-3889680I0J-15240D01*
G75*
G01*
X4295170Y-3958920D02*
G02*
X4279930Y-3974160I-15240J0D01*
G75*
G01*
X4140170Y-2756840D02*
G03*
X4124930Y-2772080I0J-15240D01*
G75*
G01*
X4124930Y-2841320D02*
G03*
X4140170Y-2856560I15240J0D01*
G75*
G01*
X4343430Y-2756840D02*
G02*
X4358670Y-2772080I0J-15240D01*
G75*
G01*
X4358670Y-2841320D02*
G02*
X4343430Y-2856560I-15240J0D01*
D13*
G75*
G01
X3760521Y-2563393D02*
G03X3760521Y-2563393I-5232J0D01*
G36*
X5346700Y-4025900D02*
G01*
X5753100Y-4025900D01*
X5753100Y-4368800D01*
X5346700Y-4368800D01*
G37*
G36*
X2425700Y-4025900D02*
G01*
X5543550Y-4025900D01*
X5543550Y-4064000D01*
X2425700Y-4064000D01*
G37*
G36*
X2425700Y-4051300D02*
G01*
X2641600Y-4051300D01*
X2641600Y-4368800D01*
X2425700Y-4368800D01*
G37*
G36*
X2425700Y-4356100D02*
G01*
X5753100Y-4356100D01*
X5753100Y-4368800D01*
X2425700Y-4368800D01*
G37*
M02*
