G04 Layer: TopPasteMaskLayer*
G04 EasyEDA v6.5.23, 2023-05-05 12:33:24*
G04 99fe30585978489ba2b06a073ac4f22d,10*
G04 Gerber Generator version 0.2*
G04 Scale: 100 percent, Rotated: No, Reflected: No *
G04 Dimensions in millimeters *
G04 leading zeros omitted , absolute positions ,4 integer and 5 decimal *
%FSLAX45Y45*%
%MOMM*%

%ADD10R,1.6000X5.0000*%
%ADD11R,1.6000X5.5000*%
%ADD12R,1.6000X5.2500*%
%ADD13R,1.2000X1.4000*%
%ADD14R,0.7000X1.6000*%
%ADD15R,1.2000X1.5000*%
%ADD16R,1.2000X2.2000*%
%ADD17R,1.6000X1.5000*%

%LPD*%
G36*
X4203293Y-3896817D02*
G01*
X4196283Y-3901795D01*
X4196283Y-3946804D01*
X4203293Y-3951782D01*
X4251299Y-3951782D01*
X4256278Y-3946804D01*
X4256278Y-3901795D01*
X4251299Y-3896817D01*
G37*
G36*
X4105300Y-3896817D02*
G01*
X4100322Y-3901795D01*
X4100322Y-3946804D01*
X4105300Y-3951782D01*
X4153306Y-3951782D01*
X4160316Y-3946804D01*
X4160316Y-3901795D01*
X4153306Y-3896817D01*
G37*
G36*
X4266793Y-2779217D02*
G01*
X4259783Y-2784195D01*
X4259783Y-2829204D01*
X4266793Y-2834182D01*
X4314799Y-2834182D01*
X4319778Y-2829204D01*
X4319778Y-2784195D01*
X4314799Y-2779217D01*
G37*
G36*
X4168800Y-2779217D02*
G01*
X4163822Y-2784195D01*
X4163822Y-2829204D01*
X4168800Y-2834182D01*
X4216806Y-2834182D01*
X4223816Y-2829204D01*
X4223816Y-2784195D01*
X4216806Y-2779217D01*
G37*
G36*
X2906420Y-3463493D02*
G01*
X2901391Y-3468522D01*
X2901391Y-3548481D01*
X2906420Y-3553510D01*
X2986379Y-3553510D01*
X2991408Y-3548481D01*
X2991408Y-3468522D01*
X2986379Y-3463493D01*
X2963621Y-3463493D01*
X2963621Y-3500526D01*
X2930601Y-3500526D01*
X2930601Y-3463493D01*
G37*
G36*
X2906420Y-3304489D02*
G01*
X2901391Y-3309518D01*
X2901391Y-3388512D01*
X2906420Y-3393490D01*
X2930601Y-3393490D01*
X2930601Y-3355492D01*
X2963621Y-3355492D01*
X2963621Y-3393490D01*
X2986379Y-3393490D01*
X2991408Y-3388512D01*
X2991408Y-3309518D01*
X2986379Y-3304489D01*
G37*
G36*
X5209387Y-3840022D02*
G01*
X5205374Y-3844036D01*
X5205374Y-3894124D01*
X5209387Y-3898087D01*
X5255412Y-3898087D01*
X5259425Y-3894124D01*
X5259425Y-3844036D01*
X5255412Y-3840022D01*
G37*
G36*
X5209387Y-3925112D02*
G01*
X5205374Y-3929075D01*
X5205374Y-3979164D01*
X5209387Y-3983177D01*
X5255412Y-3983177D01*
X5259425Y-3979164D01*
X5259425Y-3929075D01*
X5255412Y-3925112D01*
G37*
G36*
X3177387Y-3840022D02*
G01*
X3173374Y-3844036D01*
X3173374Y-3894124D01*
X3177387Y-3898087D01*
X3223412Y-3898087D01*
X3227425Y-3894124D01*
X3227425Y-3844036D01*
X3223412Y-3840022D01*
G37*
G36*
X3177387Y-3925112D02*
G01*
X3173374Y-3929075D01*
X3173374Y-3979164D01*
X3177387Y-3983177D01*
X3223412Y-3983177D01*
X3227425Y-3979164D01*
X3227425Y-3929075D01*
X3223412Y-3925112D01*
G37*
G36*
X4955387Y-3840022D02*
G01*
X4951374Y-3844036D01*
X4951374Y-3894124D01*
X4955387Y-3898087D01*
X5001412Y-3898087D01*
X5005425Y-3894124D01*
X5005425Y-3844036D01*
X5001412Y-3840022D01*
G37*
G36*
X4955387Y-3925112D02*
G01*
X4951374Y-3929075D01*
X4951374Y-3979164D01*
X4955387Y-3983177D01*
X5001412Y-3983177D01*
X5005425Y-3979164D01*
X5005425Y-3929075D01*
X5001412Y-3925112D01*
G37*
G36*
X4018026Y-2970174D02*
G01*
X4014012Y-2974187D01*
X4014012Y-3020212D01*
X4018026Y-3024225D01*
X4068064Y-3024225D01*
X4072077Y-3020212D01*
X4072077Y-2974187D01*
X4068064Y-2970174D01*
G37*
G36*
X3932936Y-2970174D02*
G01*
X3928922Y-2974187D01*
X3928922Y-3020212D01*
X3932936Y-3024225D01*
X3982974Y-3024225D01*
X3986987Y-3020212D01*
X3986987Y-2974187D01*
X3982974Y-2970174D01*
G37*
G36*
X4087520Y-3482289D02*
G01*
X4082491Y-3487318D01*
X4082491Y-3567277D01*
X4087520Y-3572306D01*
X4110278Y-3572306D01*
X4110278Y-3535273D01*
X4143298Y-3535273D01*
X4143298Y-3572306D01*
X4167479Y-3572306D01*
X4172508Y-3567277D01*
X4172508Y-3487318D01*
X4167479Y-3482289D01*
G37*
G36*
X4087520Y-3642309D02*
G01*
X4082491Y-3647287D01*
X4082491Y-3726281D01*
X4087520Y-3731310D01*
X4167479Y-3731310D01*
X4172508Y-3726281D01*
X4172508Y-3647287D01*
X4167479Y-3642309D01*
X4143298Y-3642309D01*
X4143298Y-3680307D01*
X4110278Y-3680307D01*
X4110278Y-3642309D01*
G37*
D10*
G01*
X3200400Y-5880100D03*
D11*
G01*
X4229100Y-5905500D03*
D10*
G01*
X5295900Y-5880100D03*
G01*
X5029200Y-5880100D03*
D12*
G01*
X4483100Y-5892800D03*
G01*
X3975100Y-5892800D03*
D10*
G01*
X3454400Y-5880100D03*
G01*
X2946400Y-5880100D03*
D13*
G01*
X4462602Y-3340100D03*
G01*
X4122597Y-3340100D03*
D14*
G01*
X4609007Y-2638196D03*
G01*
X4499000Y-2638196D03*
G01*
X4388993Y-2638196D03*
G01*
X4278985Y-2638196D03*
G01*
X4169003Y-2638196D03*
G01*
X4058996Y-2638196D03*
G01*
X3948988Y-2638196D03*
G01*
X3838981Y-2638196D03*
G01*
X4718989Y-2638196D03*
D15*
G01*
X4839004Y-2538196D03*
D16*
G01*
X4839004Y-1578203D03*
G01*
X3288995Y-1578203D03*
D17*
G01*
X3378987Y-2538196D03*
M02*
