G04 Layer: BottomLayer*
G04 EasyEDA v6.5.23, 2023-05-05 12:33:24*
G04 99fe30585978489ba2b06a073ac4f22d,10*
G04 Gerber Generator version 0.2*
G04 Scale: 100 percent, Rotated: No, Reflected: No *
G04 Dimensions in millimeters *
G04 leading zeros omitted , absolute positions ,4 integer and 5 decimal *
%FSLAX45Y45*%
%MOMM*%

%ADD10C,0.2540*%
%ADD11C,0.6096*%
%ADD12C,0.6100*%

%LPD*%
G36*
X2639568Y-6184392D02*
G01*
X2635656Y-6183630D01*
X2632405Y-6181394D01*
X2630170Y-6178143D01*
X2629408Y-6174232D01*
X2629408Y-5499709D01*
X2628595Y-5493207D01*
X2626512Y-5487670D01*
X2622956Y-5482539D01*
X2619959Y-5479491D01*
X2616352Y-5476849D01*
X2610815Y-5474360D01*
X2603347Y-5473192D01*
X2436368Y-5473192D01*
X2432456Y-5472430D01*
X2429205Y-5470194D01*
X2426970Y-5466943D01*
X2426208Y-5463032D01*
X2426208Y-2182368D01*
X2426970Y-2178456D01*
X2429205Y-2175205D01*
X2432456Y-2172970D01*
X2436368Y-2172208D01*
X2552090Y-2172208D01*
X2558592Y-2171395D01*
X2564130Y-2169312D01*
X2569260Y-2165756D01*
X2572308Y-2162759D01*
X2574950Y-2159152D01*
X2577439Y-2153615D01*
X2578608Y-2146147D01*
X2578608Y-1179068D01*
X2579370Y-1175156D01*
X2581605Y-1171905D01*
X2584856Y-1169670D01*
X2588768Y-1168908D01*
X5590032Y-1168908D01*
X5593943Y-1169670D01*
X5597194Y-1171905D01*
X5599430Y-1175156D01*
X5600192Y-1179068D01*
X5600192Y-2145690D01*
X5601004Y-2152192D01*
X5603087Y-2157730D01*
X5606643Y-2162860D01*
X5609640Y-2165908D01*
X5613247Y-2168550D01*
X5618784Y-2171039D01*
X5626252Y-2172208D01*
X5742432Y-2172208D01*
X5746343Y-2172970D01*
X5749594Y-2175205D01*
X5751830Y-2178456D01*
X5752592Y-2182368D01*
X5752592Y-5463032D01*
X5751830Y-5466943D01*
X5749594Y-5470194D01*
X5746343Y-5472430D01*
X5742432Y-5473192D01*
X5575909Y-5473192D01*
X5569407Y-5474004D01*
X5563870Y-5476087D01*
X5558739Y-5479643D01*
X5555691Y-5482640D01*
X5553049Y-5486247D01*
X5550560Y-5491784D01*
X5549392Y-5499252D01*
X5549392Y-6174232D01*
X5548630Y-6178143D01*
X5546394Y-6181394D01*
X5543143Y-6183630D01*
X5539232Y-6184392D01*
X3903319Y-6184392D01*
X3899458Y-6183630D01*
X3896156Y-6181394D01*
X3893921Y-6178143D01*
X3893159Y-6174232D01*
X3893058Y-5309158D01*
X3892245Y-5302656D01*
X3890162Y-5297119D01*
X3886555Y-5291988D01*
X3883609Y-5289042D01*
X3879951Y-5286349D01*
X3874414Y-5283860D01*
X3866997Y-5282692D01*
X3709009Y-5282692D01*
X3702507Y-5283504D01*
X3696970Y-5285587D01*
X3691839Y-5289143D01*
X3688791Y-5292140D01*
X3686149Y-5295747D01*
X3683660Y-5301284D01*
X3682492Y-5308752D01*
X3682492Y-6174232D01*
X3681729Y-6178143D01*
X3679494Y-6181394D01*
X3676243Y-6183630D01*
X3672332Y-6184392D01*
G37*

%LPC*%
G36*
X5232400Y-3815537D02*
G01*
X5242204Y-3814673D01*
X5251653Y-3812133D01*
X5260594Y-3808018D01*
X5268620Y-3802379D01*
X5275580Y-3795420D01*
X5281218Y-3787394D01*
X5285333Y-3778453D01*
X5287873Y-3769004D01*
X5288737Y-3759200D01*
X5287873Y-3749395D01*
X5285333Y-3739946D01*
X5281218Y-3731006D01*
X5275580Y-3722979D01*
X5274005Y-3721404D01*
X5271770Y-3718102D01*
X5271008Y-3714191D01*
X5271008Y-3505708D01*
X5270195Y-3497681D01*
X5268010Y-3490468D01*
X5264454Y-3483762D01*
X5259324Y-3477564D01*
X5189677Y-3407918D01*
X5183479Y-3402787D01*
X5176774Y-3399231D01*
X5169560Y-3397046D01*
X5167325Y-3396792D01*
X5163515Y-3395675D01*
X5160467Y-3393135D01*
X5158587Y-3389629D01*
X5158232Y-3385718D01*
X5159349Y-3381908D01*
X5161584Y-3377692D01*
X5163769Y-3370478D01*
X5164582Y-3362451D01*
X5164582Y-3327654D01*
X5163769Y-3319627D01*
X5161584Y-3312414D01*
X5158028Y-3305708D01*
X5153253Y-3299866D01*
X5147411Y-3295091D01*
X5140706Y-3291535D01*
X5133492Y-3289350D01*
X5125466Y-3288537D01*
X5103114Y-3288537D01*
X5099202Y-3287776D01*
X5095951Y-3285540D01*
X5093716Y-3282289D01*
X5092954Y-3278378D01*
X5092954Y-3255772D01*
X5092141Y-3247745D01*
X5089956Y-3240532D01*
X5086400Y-3233826D01*
X5081625Y-3227984D01*
X5075783Y-3223209D01*
X5069078Y-3219653D01*
X5061864Y-3217468D01*
X5053838Y-3216656D01*
X5031232Y-3216656D01*
X5027320Y-3215894D01*
X5024069Y-3213658D01*
X5021834Y-3210407D01*
X5021072Y-3206496D01*
X5021072Y-3183890D01*
X5020259Y-3175863D01*
X5018074Y-3168650D01*
X5014518Y-3161944D01*
X5009743Y-3156102D01*
X5003901Y-3151327D01*
X4997196Y-3147771D01*
X4989982Y-3145586D01*
X4981956Y-3144774D01*
X4946904Y-3144774D01*
X4938877Y-3145586D01*
X4931664Y-3147771D01*
X4927650Y-3149904D01*
X4923891Y-3151022D01*
X4919929Y-3150666D01*
X4916424Y-3148787D01*
X4913934Y-3145688D01*
X4912766Y-3141929D01*
X4912563Y-3140049D01*
X4910378Y-3132836D01*
X4906822Y-3126130D01*
X4901692Y-3119932D01*
X4558284Y-2776524D01*
X4555947Y-2772867D01*
X4555337Y-2768600D01*
X4554474Y-2758795D01*
X4551934Y-2749346D01*
X4547819Y-2740406D01*
X4542180Y-2732379D01*
X4535220Y-2725420D01*
X4527194Y-2719781D01*
X4518253Y-2715666D01*
X4508804Y-2713126D01*
X4499000Y-2712262D01*
X4489196Y-2713126D01*
X4479747Y-2715666D01*
X4470806Y-2719781D01*
X4462780Y-2725420D01*
X4455820Y-2732379D01*
X4450181Y-2740406D01*
X4446066Y-2749346D01*
X4443526Y-2758795D01*
X4442663Y-2768600D01*
X4443526Y-2778404D01*
X4446066Y-2787853D01*
X4450181Y-2796794D01*
X4455820Y-2804820D01*
X4462780Y-2811780D01*
X4470806Y-2817418D01*
X4479747Y-2821533D01*
X4489196Y-2824073D01*
X4493717Y-2824480D01*
X4497120Y-2825394D01*
X4500016Y-2827426D01*
X4833162Y-3160572D01*
X4835398Y-3163874D01*
X4836160Y-3167786D01*
X4836160Y-3218688D01*
X4836972Y-3226714D01*
X4839157Y-3233928D01*
X4842713Y-3240633D01*
X4847488Y-3246475D01*
X4853330Y-3251250D01*
X4860036Y-3254806D01*
X4867249Y-3256991D01*
X4875276Y-3257803D01*
X4897628Y-3257803D01*
X4901539Y-3258565D01*
X4904790Y-3260801D01*
X4907026Y-3264052D01*
X4907788Y-3267964D01*
X4907788Y-3290570D01*
X4908600Y-3298596D01*
X4910785Y-3305810D01*
X4914341Y-3312515D01*
X4919116Y-3318357D01*
X4924958Y-3323132D01*
X4931664Y-3326688D01*
X4938877Y-3328873D01*
X4946904Y-3329686D01*
X4969510Y-3329686D01*
X4973421Y-3330448D01*
X4976672Y-3332683D01*
X4978908Y-3335934D01*
X4979670Y-3339846D01*
X4979670Y-3362451D01*
X4980482Y-3370478D01*
X4982667Y-3377692D01*
X4986223Y-3384397D01*
X4990998Y-3390239D01*
X4996840Y-3395014D01*
X5003546Y-3398570D01*
X5010759Y-3400755D01*
X5018786Y-3401568D01*
X5041392Y-3401568D01*
X5045303Y-3402329D01*
X5048554Y-3404565D01*
X5050790Y-3407816D01*
X5051552Y-3411728D01*
X5051552Y-3434334D01*
X5052364Y-3442360D01*
X5054549Y-3449574D01*
X5058105Y-3456279D01*
X5062880Y-3462121D01*
X5068722Y-3466896D01*
X5075428Y-3470452D01*
X5082641Y-3472637D01*
X5090668Y-3473450D01*
X5141823Y-3473450D01*
X5145735Y-3474212D01*
X5149037Y-3476447D01*
X5190794Y-3518204D01*
X5193030Y-3521506D01*
X5193792Y-3525418D01*
X5193792Y-3714191D01*
X5193030Y-3718102D01*
X5190794Y-3721404D01*
X5189220Y-3722979D01*
X5183581Y-3731006D01*
X5179466Y-3739946D01*
X5176926Y-3749395D01*
X5176062Y-3759200D01*
X5176926Y-3769004D01*
X5179466Y-3778453D01*
X5183581Y-3787394D01*
X5189220Y-3795420D01*
X5196179Y-3802379D01*
X5204206Y-3808018D01*
X5213146Y-3812133D01*
X5222595Y-3814673D01*
G37*
G36*
X4978400Y-3815537D02*
G01*
X4988204Y-3814673D01*
X4997653Y-3812133D01*
X5006594Y-3808018D01*
X5014620Y-3802379D01*
X5021580Y-3795420D01*
X5027218Y-3787394D01*
X5031333Y-3778453D01*
X5033873Y-3769004D01*
X5034737Y-3759200D01*
X5033873Y-3749395D01*
X5031333Y-3739946D01*
X5027218Y-3731006D01*
X5021580Y-3722979D01*
X5020005Y-3721404D01*
X5017770Y-3718102D01*
X5017008Y-3714191D01*
X5017008Y-3696208D01*
X5016195Y-3688181D01*
X5014010Y-3680968D01*
X5010454Y-3674262D01*
X5005324Y-3668064D01*
X4941011Y-3603751D01*
X4934813Y-3598621D01*
X4928108Y-3595065D01*
X4920894Y-3592880D01*
X4918913Y-3592677D01*
X4915103Y-3591509D01*
X4912055Y-3589020D01*
X4910175Y-3585514D01*
X4909769Y-3581552D01*
X4910937Y-3577742D01*
X4913172Y-3573576D01*
X4915357Y-3566312D01*
X4916170Y-3558286D01*
X4916170Y-3523487D01*
X4915357Y-3515461D01*
X4913172Y-3508248D01*
X4909616Y-3501542D01*
X4904841Y-3495700D01*
X4898999Y-3490925D01*
X4892294Y-3487369D01*
X4885080Y-3485184D01*
X4877054Y-3484372D01*
X4854448Y-3484372D01*
X4850536Y-3483610D01*
X4847285Y-3481374D01*
X4845050Y-3478123D01*
X4844288Y-3474212D01*
X4844288Y-3451606D01*
X4843475Y-3443579D01*
X4841290Y-3436365D01*
X4837734Y-3429660D01*
X4832959Y-3423818D01*
X4827117Y-3419043D01*
X4820412Y-3415487D01*
X4813198Y-3413302D01*
X4805172Y-3412490D01*
X4782566Y-3412490D01*
X4778654Y-3411728D01*
X4775403Y-3409492D01*
X4773168Y-3406241D01*
X4772406Y-3402329D01*
X4772406Y-3379724D01*
X4771593Y-3371697D01*
X4769408Y-3364484D01*
X4765852Y-3357778D01*
X4761077Y-3351936D01*
X4755235Y-3347161D01*
X4748530Y-3343605D01*
X4741316Y-3341420D01*
X4733290Y-3340608D01*
X4682134Y-3340608D01*
X4678222Y-3339846D01*
X4674920Y-3337610D01*
X4117949Y-2780639D01*
X4115562Y-2776931D01*
X4115003Y-2772562D01*
X4115358Y-2768600D01*
X4114495Y-2758795D01*
X4111955Y-2749346D01*
X4107789Y-2740406D01*
X4102150Y-2732379D01*
X4095242Y-2725420D01*
X4087164Y-2719781D01*
X4078274Y-2715666D01*
X4068775Y-2713126D01*
X4059021Y-2712262D01*
X4049217Y-2713126D01*
X4039717Y-2715666D01*
X4030827Y-2719781D01*
X4022750Y-2725420D01*
X4015841Y-2732379D01*
X4010202Y-2740406D01*
X4006037Y-2749346D01*
X4003497Y-2758795D01*
X4002633Y-2768600D01*
X4003497Y-2778404D01*
X4006037Y-2787853D01*
X4010202Y-2796794D01*
X4015841Y-2804820D01*
X4022750Y-2811780D01*
X4030827Y-2817418D01*
X4039666Y-2821533D01*
X4050487Y-2824327D01*
X4052976Y-2825343D01*
X4055110Y-2826969D01*
X4634280Y-3406140D01*
X4640478Y-3411270D01*
X4647184Y-3414826D01*
X4654397Y-3417011D01*
X4656632Y-3417265D01*
X4660442Y-3418382D01*
X4663490Y-3420922D01*
X4665370Y-3424428D01*
X4665726Y-3428339D01*
X4664608Y-3432149D01*
X4662373Y-3436365D01*
X4660188Y-3443579D01*
X4659376Y-3451606D01*
X4659376Y-3486658D01*
X4660188Y-3494684D01*
X4662373Y-3501898D01*
X4665929Y-3508603D01*
X4670704Y-3514445D01*
X4676546Y-3519220D01*
X4683252Y-3522776D01*
X4690465Y-3524961D01*
X4698492Y-3525774D01*
X4721098Y-3525774D01*
X4725009Y-3526536D01*
X4728260Y-3528771D01*
X4730496Y-3532022D01*
X4731258Y-3535934D01*
X4731258Y-3558286D01*
X4732070Y-3566312D01*
X4734255Y-3573526D01*
X4737811Y-3580231D01*
X4742586Y-3586073D01*
X4748428Y-3590848D01*
X4755134Y-3594404D01*
X4762347Y-3596589D01*
X4770374Y-3597401D01*
X4792980Y-3597401D01*
X4796891Y-3598164D01*
X4800142Y-3600399D01*
X4802378Y-3603650D01*
X4803140Y-3607562D01*
X4803140Y-3630168D01*
X4803952Y-3638194D01*
X4806137Y-3645408D01*
X4809693Y-3652113D01*
X4814468Y-3657955D01*
X4820310Y-3662730D01*
X4827016Y-3666286D01*
X4834229Y-3668471D01*
X4842256Y-3669284D01*
X4893157Y-3669284D01*
X4897069Y-3670046D01*
X4900371Y-3672281D01*
X4935982Y-3707892D01*
X4938166Y-3711194D01*
X4938928Y-3715054D01*
X4938166Y-3718966D01*
X4929581Y-3731006D01*
X4925466Y-3739946D01*
X4922926Y-3749395D01*
X4922062Y-3759200D01*
X4922926Y-3769004D01*
X4925466Y-3778453D01*
X4929581Y-3787394D01*
X4935220Y-3795420D01*
X4942179Y-3802379D01*
X4950206Y-3808018D01*
X4959146Y-3812133D01*
X4968595Y-3814673D01*
G37*
G36*
X4558995Y-1624076D02*
G01*
X4571238Y-1623212D01*
X4583176Y-1620621D01*
X4594656Y-1616303D01*
X4605426Y-1610461D01*
X4615230Y-1603095D01*
X4623917Y-1594459D01*
X4631232Y-1584655D01*
X4637125Y-1573885D01*
X4641392Y-1562404D01*
X4643983Y-1550416D01*
X4644898Y-1538224D01*
X4643983Y-1525981D01*
X4641392Y-1513992D01*
X4637125Y-1502511D01*
X4631232Y-1491792D01*
X4623917Y-1481937D01*
X4615230Y-1473301D01*
X4605426Y-1465935D01*
X4594656Y-1460093D01*
X4583176Y-1455775D01*
X4571238Y-1453184D01*
X4558995Y-1452321D01*
X4546752Y-1453184D01*
X4534814Y-1455775D01*
X4523333Y-1460093D01*
X4512564Y-1465935D01*
X4502759Y-1473301D01*
X4494072Y-1481937D01*
X4486757Y-1491792D01*
X4480864Y-1502511D01*
X4476597Y-1513992D01*
X4474006Y-1525981D01*
X4473092Y-1538224D01*
X4474006Y-1550416D01*
X4476597Y-1562404D01*
X4480864Y-1573885D01*
X4486757Y-1584655D01*
X4494072Y-1594459D01*
X4502759Y-1603095D01*
X4512564Y-1610461D01*
X4523333Y-1616303D01*
X4534814Y-1620621D01*
X4546752Y-1623212D01*
G37*
G36*
X3758996Y-1624076D02*
G01*
X3771239Y-1623212D01*
X3783177Y-1620621D01*
X3794658Y-1616303D01*
X3805428Y-1610461D01*
X3815232Y-1603095D01*
X3823919Y-1594459D01*
X3831234Y-1584655D01*
X3837127Y-1573885D01*
X3841394Y-1562404D01*
X3843985Y-1550416D01*
X3844899Y-1538224D01*
X3843985Y-1525981D01*
X3841394Y-1513992D01*
X3837127Y-1502511D01*
X3831234Y-1491792D01*
X3823919Y-1481937D01*
X3815232Y-1473301D01*
X3805428Y-1465935D01*
X3794658Y-1460093D01*
X3783177Y-1455775D01*
X3771239Y-1453184D01*
X3758996Y-1452321D01*
X3746754Y-1453184D01*
X3734815Y-1455775D01*
X3723335Y-1460093D01*
X3712565Y-1465935D01*
X3702761Y-1473301D01*
X3694074Y-1481937D01*
X3686759Y-1491792D01*
X3680866Y-1502511D01*
X3676599Y-1513992D01*
X3674008Y-1525981D01*
X3673094Y-1538224D01*
X3674008Y-1550416D01*
X3676599Y-1562404D01*
X3680866Y-1573885D01*
X3686759Y-1584655D01*
X3694074Y-1594459D01*
X3702761Y-1603095D01*
X3712565Y-1610461D01*
X3723335Y-1616303D01*
X3734815Y-1620621D01*
X3746754Y-1623212D01*
G37*

%LPD*%
D10*
X4499102Y-2768600D02*
G01*
X4499102Y-2771902D01*
X4874768Y-3147568D01*
X4874768Y-3219195D01*
X4910581Y-3219195D01*
X4946395Y-3183381D01*
X4982463Y-3183381D01*
X4982463Y-3219195D01*
X4946395Y-3255263D01*
X4946395Y-3291078D01*
X4982463Y-3291078D01*
X5018277Y-3255263D01*
X5054345Y-3255263D01*
X5054345Y-3291078D01*
X5018277Y-3327145D01*
X5018277Y-3362960D01*
X5054345Y-3362960D01*
X5090159Y-3327145D01*
X5125974Y-3327145D01*
X5125974Y-3362960D01*
X5090159Y-3398773D01*
X5090159Y-3434842D01*
X5162041Y-3434842D01*
X5232400Y-3505200D01*
X5232400Y-3759200D01*
X4058920Y-2768600D02*
G01*
X4058920Y-2776220D01*
X4661915Y-3379215D01*
X4733797Y-3379215D01*
X4733797Y-3415284D01*
X4697984Y-3451097D01*
X4697984Y-3487165D01*
X4733797Y-3487165D01*
X4769865Y-3451097D01*
X4805679Y-3451097D01*
X4805679Y-3487165D01*
X4769865Y-3522979D01*
X4769865Y-3558794D01*
X4805679Y-3558794D01*
X4841747Y-3522979D01*
X4877561Y-3522979D01*
X4877561Y-3558794D01*
X4841747Y-3594862D01*
X4841747Y-3630676D01*
X4913375Y-3630676D01*
X4978400Y-3695700D01*
X4978400Y-3759200D01*
D11*
G01*
X4499000Y-2768600D03*
G01*
X5232400Y-3759200D03*
G01*
X4058996Y-2768600D03*
G01*
X4978400Y-3759200D03*
G01*
X4127500Y-5435600D03*
G01*
X4229100Y-5435600D03*
G01*
X4330700Y-5232400D03*
G01*
X4127500Y-5334000D03*
D12*
G01*
X2641600Y-3416300D03*
G01*
X2641600Y-3924300D03*
G01*
X2954756Y-1247927D03*
G01*
X2954756Y-1755927D03*
G01*
X2954756Y-2263927D03*
G01*
X2954756Y-2771927D03*
G01*
X3462731Y-1247927D03*
G01*
X3462731Y-1755927D03*
G01*
X3462731Y-2263927D03*
G01*
X3462731Y-3279927D03*
G01*
X3970731Y-1247927D03*
G01*
X3970731Y-1755927D03*
G01*
X3970731Y-2263927D03*
G01*
X3970731Y-3279927D03*
G01*
X3970731Y-3787927D03*
G01*
X4478756Y-1247927D03*
G01*
X4478756Y-1755927D03*
G01*
X4478756Y-2263927D03*
G01*
X4478756Y-3787927D03*
G01*
X4986731Y-1247927D03*
G01*
X4986731Y-1755927D03*
G01*
X4986731Y-2263927D03*
G01*
X4986731Y-2771927D03*
G01*
X5494731Y-1247927D03*
G01*
X5494731Y-1755927D03*
G01*
X5494731Y-2263927D03*
G01*
X5494731Y-2771927D03*
G01*
X5494731Y-3279927D03*
G01*
X5494731Y-3787927D03*
G01*
X4406900Y-2806700D03*
G01*
X4406900Y-2489200D03*
D11*
G01*
X4127500Y-5232400D03*
G01*
X4229100Y-5232400D03*
G01*
X3073400Y-3784600D03*
G01*
X3327400Y-3784600D03*
G01*
X4330700Y-5334000D03*
G01*
X4330700Y-5435600D03*
M02*
